<svg xmlns="http://www.w3.org/2000/svg" xmlns:xlink="http://www.w3.org/1999/xlink" xml:space="preserve" id="illustration" x="0" y="0" style="enable-background:new 0 0 600 400" version="1.1" viewBox="0 0 600 400"><style>.st1{clip-path:url(#SVGID_2_)}.st2{fill:#f1f1f4}.st6{fill:#e5e2ff}.st11{fill:#fff}.st32{fill:#e28183}.st56{fill:#ebefff}.st67{fill:#38368e}.st70{fill:#ffebed}.st71{fill:#7f9ec9}.st72{fill:#131163}.st73{fill:#c6659c}.st76{fill:#ffbcaf}.st88{fill:#34c7ff}.st93{fill:#744ca2}.st99{fill:#d1d4fb}.st100{fill:#e0ffff}.st112{fill:#953da2}.st117{opacity:.5;fill-rule:evenodd;clip-rule:evenodd;fill:#601734}.st121{clip-path:url(#SVGID_2_);fill:#4f31e0}</style><defs><path id="SVGID_1_" d="M0 0h600v400H0z"/></defs><clipPath id="SVGID_2_"><use xlink:href="#SVGID_1_" style="overflow:visible"/></clipPath><path d="M0 0h600v400H0z" style="clip-path:url(#SVGID_2_);fill:#fff"/><g class="st1"><path d="M148.21 196.1c.01-.25.13-.36.36-.36l6.71.2c.66.02 1.23.12 1.69.3.46.18.83.43 1.11.75s.47.69.59 1.14c.12.44.17.93.15 1.47l-.06 1.84c-.02.54-.1 1.03-.24 1.46-.14.43-.36.8-.66 1.1-.3.3-.68.52-1.15.68-.47.15-1.04.22-1.7.2l-3.61-.11-.75-2.11h-.1l-.06 2.09-2.53-.08.25-8.57zm2.34 6.33 4.29.13c.48.01.83-.08 1.04-.29.21-.21.32-.58.34-1.12l.05-1.5c.02-.56-.07-.94-.27-1.15-.2-.21-.54-.32-1.02-.33l-4.1-.13c-.06 0-.1.02-.14.05a.21.21 0 0 0-.05.13l-.14 4.21zM162.45 199.93h-.09l-.08 2.68c0 .11.05.17.17.18l7.54.23-.07 2.32-9.89-.3c-.24-.01-.35-.13-.35-.38l.25-8.21c.01-.25.13-.36.37-.36l9.61.29c.25.01.37.13.36.38l-.07 2.32-2.37.8h-.1l.04-1.19c0-.09-.04-.14-.12-.14l-5.07-.15c-.07 0-.11.02-.13.05-.02.04-.03.08-.03.12l-.03 1.12 4.18.13-.06 1.82-3.5-.11-.56-1.6zM179.21 199.77h-.1l.03-.98c0-.1-.04-.15-.14-.15l-4.72-.14c-.17 0-.29.03-.36.1s-.1.18-.11.32l-.01.22c-.01.17.02.28.08.33.06.05.17.09.33.12l5.53.94c.35.06.65.15.89.25.24.11.44.25.59.42.15.17.25.38.31.63s.08.54.07.88l-.02.71c-.01.37-.07.69-.17.97s-.25.51-.46.7c-.21.19-.49.32-.82.41-.34.09-.75.13-1.24.11l-7.96-.24.07-2.32 7.14.22c.21.01.36-.03.43-.1.07-.08.11-.21.12-.41l.01-.25c0-.16-.02-.27-.07-.33s-.15-.11-.31-.13l-5.34-.84c-.36-.06-.67-.14-.92-.25-.25-.11-.46-.24-.62-.41-.16-.17-.27-.37-.34-.61s-.09-.52-.08-.85l.02-.63c.02-.65.21-1.14.56-1.49.36-.35.93-.51 1.74-.48l7.95.24c.25.01.38.14.37.4l-.06 1.84-2.39.8zM182.57 205.72l.27-8.94 2.53.08-.27 8.94-2.53-.08zM194.49 202.25c0-.13 0-.27-.01-.41-.01-.14-.02-.27-.03-.38v-.11l2.51.08-.13 4.39c-.01.23-.11.34-.32.33l-6.73-.2c-.66-.02-1.23-.12-1.69-.3-.46-.18-.83-.43-1.11-.75-.28-.32-.48-.69-.59-1.14a4.89 4.89 0 0 1-.15-1.47l.06-1.84c.02-.54.1-1.03.24-1.46.14-.43.36-.8.66-1.1.3-.3.68-.52 1.15-.68.47-.15 1.04-.22 1.7-.2l6.69.2c.24.01.35.13.35.38l-.06 1.93-2.37.79h-.1l.03-.86c0-.08-.03-.12-.11-.13l-4.27-.13c-.25-.01-.45.01-.62.05a.85.85 0 0 0-.42.22c-.11.11-.19.25-.25.44-.05.18-.09.41-.1.68l-.05 1.57c-.02.54.07.92.27 1.14.2.22.54.34 1.02.35l4.24.13c.09 0 .14-.04.14-.14l.05-1.38zM202.31 197.37c.19.01.32.04.4.1.08.06.14.15.21.28l3.2 6.53c.05.1.13.15.23.15h.13c.13 0 .2-.06.2-.19l.2-6.73 2.3.07-.26 8.59c-.01.24-.13.35-.35.34l-3.64-.11c-.17 0-.3-.03-.38-.09-.09-.05-.16-.15-.23-.29L201 199.5c-.05-.1-.12-.15-.23-.15h-.12c-.13 0-.2.06-.2.19l-.2 6.72-2.3-.07.26-8.58c.01-.25.13-.36.35-.36l3.75.12z" class="st2"/></g><circle cx="269.05" cy="195.53" r="155.02" style="clip-path:url(#SVGID_2_);fill:#e0f3ff" transform="rotate(-45.001 269.049 195.534)"/><g class="st1"><linearGradient id="SVGID_3_" x1="139.837" x2="139.837" y1="275.201" y2="204.012" gradientTransform="rotate(-25.042 83.471 195.837)" gradientUnits="userSpaceOnUse"><stop offset="0" style="stop-color:#dbccff"/><stop offset="1" style="stop-color:#d1bbff"/></linearGradient><path d="M155.1 185.61c-3.81-6.56-10.55-9.26-10.55-9.26l-2.35 1.1 5.29 9.6c-.71 3.69-3.24 5.72-3.24 5.72l-.01-.02s-3.18.64-6.47-1.19l-3.97-10.22-2.35 1.1s-2.25 6.9.33 14.04c0 0 1 2.31 1.18 2.52.93 1.09 3.36 2.34 8.06 2.05l16.2 30.91c-1.35 2.32-1.58 5.23-.36 7.83a8.47 8.47 0 0 0 11.26 4.09 8.47 8.47 0 0 0 4.09-11.26 8.43 8.43 0 0 0-6.24-4.75l-13.31-32.25c3.17-3.34 3.84-5.97 3.6-7.49-.04-.33-1.16-2.52-1.16-2.52zm13.32 53.31-4.29 2.01-3.88-2.71.41-4.72 4.29-2.01 3.88 2.71-.41 4.72z" style="fill:url(#SVGID_3_)"/><linearGradient id="SVGID_4_" x1="139.833" x2="139.833" y1="277.978" y2="206.789" gradientTransform="rotate(-25.042 83.471 195.837)" gradientUnits="userSpaceOnUse"><stop offset="0" style="stop-color:#b5a6e7"/><stop offset="1" style="stop-color:#7760bf"/></linearGradient><path d="M156.27 188.13c-3.81-6.56-10.55-9.26-10.55-9.26l-2.35 1.1 5.29 9.6c-.71 3.69-3.24 5.72-3.24 5.72l-.01-.02s-3.18.64-6.47-1.19l-3.97-10.22-2.35 1.1s-2.25 6.9.33 14.04c0 0 3.66 4.91 9.23 4.57l16.2 30.91c-1.35 2.32-1.58 5.23-.36 7.83a8.47 8.47 0 0 0 11.26 4.09 8.47 8.47 0 0 0 4.09-11.26 8.43 8.43 0 0 0-6.24-4.75l-13.31-32.25c3.87-4.05 2.45-10.01 2.45-10.01zm13.33 53.31-4.29 2.01-3.88-2.71.41-4.72 4.29-2.01 3.88 2.71-.41 4.72z" style="fill:url(#SVGID_4_)"/><path d="m131.456 182.44 2.346-1.096 1.177 2.518-2.346 1.097zM142.193 177.442l2.347-1.096 1.177 2.519-2.347 1.096zM164.137 240.922l4.295-2.006 1.177 2.518-4.295 2.007z" class="st6"/><linearGradient id="SVGID_5_" x1="139.833" x2="139.833" y1="260.28" y2="230.272" gradientTransform="rotate(-25.042 83.471 195.837)" gradientUnits="userSpaceOnUse"><stop offset="0" style="stop-color:#b5a6e7"/><stop offset="1" style="stop-color:#7760bf"/></linearGradient><path d="m145.66 205.86 13.09 25.15c3.44.16 5.28-2.47 5.28-2.47l-10.65-26.29c-4.78-.17-7.72 3.61-7.72 3.61zm17.36 22.89c-.38.33-.96.77-1.69 1.11a6.5 6.5 0 0 1-1.81.54l-13.11-24.63c.64-.57 1.74-1.41 3.15-2.07 1.06-.49 2.14-.81 3.24-.96l10.22 26.01z" style="fill:url(#SVGID_5_)"/><path d="m163.02 228.75 1.01-.21s-1.5 2.66-5.28 2.47l.77-.61s1.87-.22 3.5-1.65z" class="st6"/><linearGradient id="SVGID_6_" x1="135.574" x2="144.091" y1="230.873" y2="230.873" gradientTransform="rotate(-25.042 83.471 195.837)" gradientUnits="userSpaceOnUse"><stop offset="0" style="stop-color:#8b8be0"/><stop offset="1" style="stop-color:#a177b7"/></linearGradient><path d="m145.66 205.86.75-.1s2.24-2.32 6.39-3.02l.57-.48s-1.67-.29-4.27.92c-2.59 1.21-3.44 2.68-3.44 2.68z" style="opacity:.62;fill:url(#SVGID_6_)"/><linearGradient id="SVGID_7_" x1="139.833" x2="139.833" y1="232.85" y2="227.694" gradientTransform="rotate(-25.042 83.471 195.837)" gradientUnits="userSpaceOnUse"><stop offset="0" style="stop-color:#fff"/><stop offset="1" style="stop-color:#a177b7"/></linearGradient><path d="M142.19 203.56s6.29-1.12 11.66-5.43l1.7 4.12s-1.93-1.91-6.17-.18c-4.95 2.02-4.68 6-4.68 6l-2.51-4.51z" style="opacity:.62;fill:url(#SVGID_7_)"/><linearGradient id="SVGID_8_" x1="144.337" x2="144.337" y1="263.343" y2="230.262" gradientTransform="rotate(-25.042 83.471 195.837)" gradientUnits="userSpaceOnUse"><stop offset="0" style="stop-color:#000"/><stop offset="1" style="stop-color:#fff"/></linearGradient><path d="M155.55 202.26c-1.21-.87-2.59-.89-2.59-.89l12.67 30.6 1.53-1.58-11.61-28.13z" style="opacity:.5;fill:url(#SVGID_8_)"/><path d="M155.55 202.26s-1.33 4.09 2.49 6.03l-2.49-6.03z" class="st11"/></g><g class="st1"><linearGradient id="SVGID_9_" x1="280.3" x2="280.3" y1="400" y2="310.79" gradientUnits="userSpaceOnUse"><stop offset="0" style="stop-color:#6456c0"/><stop offset="1" style="stop-color:#5f2c95"/></linearGradient><path d="M346.23 400h-47c-4.92-27.32-16.36-62.87-16.36-62.87-2.78-1.65-8.21.38-8.21.38L257.48 400h-42.94c-2.28-38.56 18.82-82.33 18.82-82.33l-.01-.01c-.07-.15-.74-1.49-.56-2.39.07-.39.79-1.13 1.6-1.86 1.16-1.06 2.54-2.12 2.54-2.12l80.11-.5s.81.41 1.84 1.03h.01c1.75 1.06 4.12 2.7 4.12 3.9 0 1.65-.65 2.72-.81 2.96l-.04.05c17.18 32.42 24.07 81.27 24.07 81.27z" style="fill:url(#SVGID_9_)"/><radialGradient id="SVGID_10_" cx="232.499" cy="368.65" r="27.028" gradientTransform="matrix(.6462 .1491 -.3852 1.6696 228.623 -282.248)" gradientUnits="userSpaceOnUse"><stop offset="0" style="stop-color:#4b474b"/><stop offset="1" style="stop-color:#000"/></radialGradient><path d="M254.33 371.95c-5.75 24.92-18.23 43.32-27.88 41.1s-12.8-24.23-7.05-49.15c5.75-24.92 18.23-43.32 27.88-41.1 9.64 2.22 12.8 24.22 7.05 49.15z" style="opacity:.5;fill:url(#SVGID_10_)"/><radialGradient id="SVGID_11_" cx="351.329" cy="352.809" r="27.027" gradientTransform="matrix(.6386 -.179 .4623 1.6499 -67.403 -151.745)" gradientUnits="userSpaceOnUse"><stop offset="0" style="stop-color:#4b474b"/><stop offset="1" style="stop-color:#000"/></radialGradient><path d="M337.32 362.63c6.9 24.63 4.77 46.76-4.76 49.43-9.53 2.67-22.85-15.13-29.76-39.76-6.9-24.63-4.77-46.76 4.76-49.43 9.54-2.67 22.86 15.13 29.76 39.76z" style="opacity:.5;fill:url(#SVGID_11_)"/><linearGradient id="SVGID_12_" x1="251.427" x2="274.825" y1="368.682" y2="368.682" gradientUnits="userSpaceOnUse"><stop offset="0" style="stop-color:#9e8cef"/><stop offset="1" style="stop-color:#caafee"/></linearGradient><path d="m251.92 400.04-.49-.08c5.47-32.2 19.34-59.2 19.48-59.47l.06-.07 3.53-3.09.33.38-3.5 3.06c-.63 1.2-14.06 27.74-19.41 59.27z" style="fill:url(#SVGID_12_)"/><linearGradient id="SVGID_13_" x1="341.526" x2="364.925" y1="368.683" y2="368.683" gradientTransform="matrix(-1 0 0 1 647.629 0)" gradientUnits="userSpaceOnUse"><stop offset="0" style="stop-color:#9e8cef"/><stop offset="1" style="stop-color:#caafee"/></linearGradient><path d="M305.61 400.04c-5.36-31.55-19.16-58.35-19.78-59.54l-3.13-2.81.33-.37 3.22 2.91c.14.27 14.38 27.53 19.85 59.73l-.49.08z" style="fill:url(#SVGID_13_)"/><linearGradient id="SVGID_14_" x1="277.16" x2="277.16" y1="400" y2="310.79" gradientUnits="userSpaceOnUse"><stop offset="0" style="stop-color:#ccf"/><stop offset="1" style="stop-color:#755cbb"/></linearGradient><path d="M323.01 315.72c0 1.65-.65 2.72-.81 2.96l-.04.05c-16.68 3.77-29.37 19.34-29.37 19.34 9.09 17.44 24.25 61.93 24.25 61.93h-17.81c-4.92-27.32-16.36-62.87-16.36-62.87-2.78-1.65-8.21.38-8.21.38L257.48 400h-11.12c3.98-26.18 15.73-58.14 15.73-58.14-11.55-13.45-28.73-24.19-28.73-24.19l-.01-.01-2.04-1.28 1.48-1.11c7.43 7.13 31.39 16.44 32.13 16.73l-30.53-18.59c1.16-1.06 2.54-2.12 2.54-2.12l80.11-.5s.81.41 1.84 1.03L297 323.86l26.01-8.14z" style="opacity:.76;fill:url(#SVGID_14_)"/><linearGradient id="SVGID_15_" x1="287.546" x2="287.546" y1="355.395" y2="331.063" gradientUnits="userSpaceOnUse"><stop offset="0" style="stop-color:#ccf"/><stop offset="1" style="stop-color:#755cbb"/></linearGradient><path d="m282.87 337.13 9.35-6.07-2.22 6.07-1.63 18.26z" style="opacity:.76;fill:url(#SVGID_15_)"/><linearGradient id="SVGID_16_" x1="259.363" x2="259.363" y1="346.448" y2="322.609" gradientUnits="userSpaceOnUse"><stop offset="0" style="stop-color:#ccf"/><stop offset="1" style="stop-color:#755cbb"/></linearGradient><path d="m274.66 337.51-9.74-5.51-20.85-9.39 26.55 17.55 1.58 6.29z" style="opacity:.76;fill:url(#SVGID_16_)"/><path d="M301.46 149.65c.06.43.11.66.11.66-.49 2.04-1.05 3.93-1.66 5.66-1.96 5.63-4.4 9.63-6.23 12.12-1.59 2.15-2.72 3.18-2.72 3.18-14.59-4.58-21.78-18.85-24.54-25.95-.02-.03-.03-.07-.04-.11-.53-1.34-.88-2.42-1.1-3.12v-.01c-.17-.56-.25-.87-.25-.87.06-.12.12-.25.18-.37l.03-.05c.24-.5.48-1.01.7-1.5 1.91-4.18 3.18-8.09 4-11.17a60.36 60.36 0 0 0 1.27-5.71c.09-.55.13-.85.13-.85l6.8 3.59 23.43 12.4c-.35 2.15-.49 4.17-.5 5.94-.02 1.25.02 2.37.09 3.32.07 1.16.19 2.08.28 2.68v.01c0 .06.01.1.02.15z" style="fill:#fe9083"/><linearGradient id="SVGID_17_" x1="283.542" x2="283.542" y1="176.45" y2="140.84" gradientUnits="userSpaceOnUse"><stop offset="0" style="stop-color:#d5cdf8"/><stop offset="1" style="stop-color:#f3edfb"/></linearGradient><path d="M294.96 172.84a20.1 20.1 0 0 1-4.84 3.54c-.04.03-.08.05-.12.07 0 0-.05-.03-.14-.08l-.01-.01c-.51-.31-2.25-1.38-4.59-3.14-6.12-4.61-16.34-13.93-19.26-26.49-.01-.02-.01-.03-.02-.05-.34-1.49-.58-3.01-.7-4.59v-.01c-.03-.41-.06-.82-.07-1.24 0 0 2.03 4.77 5.55 9.92 4.14 6.06 10.35 12.67 17.77 12.71 6.42.04 9.71-4.35 11.38-8.4.71-1.72 1.13-3.37 1.35-4.6.01-.01.01-.02.01-.02.07-.36.12-.68.17-.95v-.01c.02-.14.04-.26.05-.37.06-.45.08-.71.08-.71s2.46 15.36-6.61 24.43z" style="fill:url(#SVGID_17_)"/><linearGradient id="SVGID_18_" x1="265.21" x2="301.874" y1="158.61" y2="158.61" gradientUnits="userSpaceOnUse"><stop offset="0" style="stop-color:#ccf"/><stop offset="1" style="stop-color:#755cbb"/></linearGradient><path d="M294.96 172.84a20.1 20.1 0 0 1-4.84 3.54H290l-.14-.01-.01-.01c-.51-.31-2.25-1.38-4.59-3.14-6.12-4.61-16.34-13.93-19.26-26.49-.01-.02-.01-.03-.02-.05-.34-1.49-.58-3.01-.7-4.59v-.01c-.03-.41-.06-.82-.07-1.24 0 0 2.03 4.77 5.55 9.92 0 0 4.04 11.1 12.78 16.6 4.38 2.75 7.7 2.35 10.14.73 2.44-1.61 4.02-4.42 4.95-6.54.93-2.13 1.23-4.12 1.28-5.58.01-.33.01-.63 0-.9.71-1.72 1.13-3.37 1.35-4.6.01-.01.01-.02.01-.02.07-.36.12-.68.17-.95v-.01c.02-.14.04-.26.05-.37.06-.45.08-.71.08-.71s2.46 15.36-6.61 24.43z" style="opacity:.5;fill:url(#SVGID_18_)"/><linearGradient id="SVGID_19_" x1="273.058" x2="273.058" y1="318.729" y2="139.29" gradientUnits="userSpaceOnUse"><stop offset="0" style="stop-color:#9e8cef"/><stop offset="1" style="stop-color:#caafee"/></linearGradient><path d="M351.12 263.53c-.11.05-.16.08-.16.08-.82.1-3.37-.46-6.71-3.35l-.01-.01c0-.01-.01-.02-.03-.03-.01-.01-.02-.03-.04-.04-2.8-2.45-6.16-6.54-9.51-13.24-6.7-13.39-8.62-22.33-8.93-23.89l-.04-.24-3.91 6.2c-2.65 7.97-7.67 40.95-7.58 42.37.09 1.42 4.45 8.34 4.36 9.19 0 0 0 .01-.01.02-.12.86-2.08 2.75-2.64 4.81-.38 1.37 2.28 5.69 4.15 8.92v.01c.97 1.68 1.72 3.06 1.72 3.58 0 1.51-4.74 8.9-4.74 8.9v3.98l-.07.07-.22.2-.18.15c-1.8 1.42-9.43 6.07-33.27 7.35-28.25 1.51-47.07-7.58-47.07-7.58l1.42-3.89s-1.32-1.13-1.42-1.7c-.09-.57 1.04-1.9 1.04-1.9s-2.84-1.51-2.84-3.41c0-1.89 5.69-7.76 5.5-12.79-.19-5.02-4.55-9.47-5.12-12.31-.57-2.84 7.39-9.85 7.39-9.85-6.82-21.6-8.15-50.59-8.15-50.59l-1.32-1.52s-8.15 18.57-15.54 27.66a63.65 63.65 0 0 1-2.77 3.18 80.976 80.976 0 0 1-6.36 6.15c-5.12 4.46-9.77 7.39-10.95 7.16-1.9-.38-9.48-15.35-9.13-30.7.16-7.3 4.56-15.47 9.13-22.02.49-.7.98-1.39 1.48-2.06 3.24-4.41 6.35-7.87 7.84-9.45.58-.62.91-.95.91-.95s-1.04-3.35-1.75-6.26c-.01-.07-.03-.14-.05-.21 0-.03-.01-.07-.02-.1a.313.313 0 0 0-.02-.07c-.42-1.79-.68-3.34-.44-3.72.63-1.01 4.3-2.15 4.93-2.9.63-.76 3.28-13.52 5.3-14.91 1.94-1.33 5.35-2.3 16.72-6.77.56-.22 1.13-.44 1.73-.68 12.75-5.05 25.26-11.18 25.26-11.18l4.8-5.9h2.14l-.7 1.5-.03.05c.34 1.52.73 2.98 1.17 4.37.01.04.02.08.04.11 6.6 20.82 23.58 27.53 23.58 27.53 11.8-8.71 11.57-22.54 11.57-22.54v-1.9l2.21.66 1.51 3.6s2.56 3.98 12.7 8.44c1.75.77 3.63 1.74 5.57 2.85 9.28 5.27 19.6 13.42 20.39 15.15.08.18.17.46.27.86v.01c1.09 4.28 3.33 20.31 5.41 26.03 1.3 3.57 3.35 5.54 4.86 6.56.01.01.01.01.02.01 1.12.77 1.94 1.01 1.94 1.01.16.88.31 1.75.45 2.61 4.35 27.42-3.92 46.03-5.78 47.33z" style="fill:url(#SVGID_19_)"/><linearGradient id="SVGID_20_" x1="198.59" x2="242.29" y1="206.915" y2="206.915" gradientUnits="userSpaceOnUse"><stop offset="0" style="stop-color:#ccf"/><stop offset="1" style="stop-color:#755cbb"/></linearGradient><path d="m242.29 211.77-8.24 2.77-1.32-1.52s-8.15 18.57-15.54 27.66a63.65 63.65 0 0 1-2.77 3.18 80.976 80.976 0 0 1-6.36 6.15l-6.28-27.07-3.19-20.55c3.24-4.41 6.35-7.87 7.84-9.45.58-.62.91-.95.91-.95s-1.04-3.35-1.75-6.26c-.01-.07-.03-.14-.05-.21 0-.03-.01-.07-.02-.1a.313.313 0 0 0-.02-.07c-.42-1.79-.68-3.34-.44-3.72.63-1.01 4.3-2.15 4.93-2.9.63-.76 3.28-13.52 5.3-14.91 0 0-1.32 12.25 5.69 27.79l3.41 4.8 9.98 8.02s3.79 5.03 7.92 7.34z" style="opacity:.5;fill:url(#SVGID_20_)"/><linearGradient id="SVGID_21_" x1="197.238" x2="197.238" y1="257.17" y2="173.26" gradientUnits="userSpaceOnUse"><stop offset="0" style="stop-color:#9e8cef"/><stop offset="1" style="stop-color:#dac7f3"/></linearGradient><path d="M218.45 233.93c-1.77 13.13-21.34 23.24-21.34 23.24-4.36 0-9.23-7.58-13.65-16.93s-4.69-36.21-4.92-37.87c-.24-1.66-2.7-4.98-2.85-6.4-.14-1.42 3.98-4.36 3.98-4.36l-.03-.07-.03-.07c-.43-.92-2.85-6.11-2.68-7.06.19-1.04 4.82-3.31 4.82-3.31l.29 5.11s10.78-2.04 14.43-10.39l.64-2.56 1.8 1.2v10.99s.37 1.71.94 1.71 4.77-2.1 5.65-1.81c.89.29 1.76 6.17 2.94 6.92 1.17.76 4.3 2.94 4.77 3.98.21.47.23 2.16.25 4.15.03 2.44.05 5.32.41 6.94.67 2.93 6.35 13.45 4.58 26.59z" style="fill:url(#SVGID_21_)"/><linearGradient id="SVGID_22_" x1="341.53" x2="397.836" y1="232.986" y2="232.986" gradientUnits="userSpaceOnUse"><stop offset="0" style="stop-color:#a999f1"/><stop offset="1" style="stop-color:#dac7f3"/></linearGradient><path d="M397.44 222.68c-.88 1.39-5.3 4.3-6.44 5.44-1.14 1.13 0 4.87 0 4.87-18.57 19.71-37.93 29.58-39.88 30.54-.11.05-.16.08-.16.08-11.66-7.84-10.66-20.75-6.79-31.63 3.7-10.44 10.04-19.01 10.32-19.38l.01-.01.01-.01c.21-.08 3.54-1.46 5.92-1.64.79-.06 1.51.25 2.19.68 1.42.88 2.62 2.27 3.78 1.69 1.71-.86 5.53-9.89 8.12-10.14 1.81-.17 4.32 1.67 5.99 2.72.73.46 1.3.77 1.58.69.95-.25 4.17-4.11 4.43-4.21.25-.11 1.72.97 1.72.97l-1.03 1.28c1.58 9.1 6.76 15.22 6.76 15.22l3.47-5.08s.89 6.53 0 7.92z" style="fill:url(#SVGID_22_)"/><path d="M301.51 149.26c-.02.13-.04.26-.05.39-.05.27-.11.53-.19.8 0 0 0 .01-.01.02-1.19 4.41-6 8.92-12.07 6.75-6.63-2.37-19.25-29.1-19.25-29.1l1.27-5.71 29.95 24.4.33 2.31.02.14z" style="fill:#cb4d7a"/><path d="M201.78 144.37s-1.83-10.11-1.01-17.56c.82-7.45-.21-15.92-.21-15.92s-1.81-.76-3.14 0-4.42 8.46-3.03 14.65c1.39 6.19.32 21.03.32 21.03h-2.08l-4.55-6.25-2.21-.63s-12.73 12-12.54 19.14l1.66 6.35 15.67-.54 10.23-11.68.89-8.59z" style="fill:#ee8183"/><linearGradient id="SVGID_23_" x1="178.923" x2="178.923" y1="161.819" y2="139.694" gradientUnits="userSpaceOnUse"><stop offset=".016" style="stop-color:#ffc2a9"/><stop offset="1" style="stop-color:#ff9595"/></linearGradient><path d="M185.86 139.69s.33 7.96 2.11 14.78c0 0-.3 2.79-3.57 2.98l-.81-.9s-.57 3.17-3.46 3.41l-2.75-2.75.71 2.27s-.99 2.42-3.6 2.32c0 0-4.36-3.41-4.64-7.86l4.31-3.65v-2.79l5.12-3.6.09-2.04c.02.01 3.02-2.21 6.49-2.17z" style="fill:url(#SVGID_23_)"/><linearGradient id="SVGID_24_" x1="192.855" x2="192.855" y1="161.295" y2="124.671" gradientUnits="userSpaceOnUse"><stop offset="0" style="stop-color:#ffeadb"/><stop offset=".994" style="stop-color:#c27cb6"/></linearGradient><path d="M200.95 124.67s-.77 1.95-1.86 2.71-4.25 1.34-4.25 1.34l-.14 17.86h-2.08l-4.55-6.25s2.31 3.57 2.45 6.25l-1.8.88-1.56-5.35-.74 3.85.74 4.79s2.7-2.32 7.58-2.41l.73 1.33s-8.83 7.31-10.86 11.62c0 0 4.36-5.54 14.31-11.65l.95-2.94 1.26-7.01c-.02 0-1.21-10.1-.18-15.02z" style="opacity:.6;fill:url(#SVGID_24_)"/><linearGradient id="SVGID_25_" x1="191.667" x2="191.667" y1="186.21" y2="129.75" gradientUnits="userSpaceOnUse"><stop offset=".016" style="stop-color:#ffc2a9"/><stop offset="1" style="stop-color:#ff9595"/></linearGradient><path d="M208.35 155.8c-.82 2.46-9.41 12.69-10.36 14.91-.95 2.21-1.52 5.11-1.52 5.11-4.22 9.13-14.43 10.39-14.43 10.39l-.47-8.24s-5.49-3.16-6.42-4.89l-.01-.03-.11-.29c-.28-1.61-.04-7.58-.04-7.58l9.61-3.89c4.17-5.4 14.31-11.65 14.31-11.65l.47-2.83c-7.28-3.58-6.06-14.41-4.83-15.74 1.23-1.32 3.5-1.32 3.5-1.32s2.66 8.71 4.36 12.79c1.71 4.07 6.76 10.8 5.94 13.26z" style="fill:url(#SVGID_25_)"/><path d="M179.39 141.87s1.07 9.95 4.22 14.68c0 0-3.99-4.96-4.31-12.65l.09-2.03zM174.18 147.51s1.04 8.01 5.97 12.46c0 0-4.36-2.18-5.97-9.66v-2.8z" class="st32"/><linearGradient id="SVGID_26_" x1="181.57" x2="199.322" y1="177.399" y2="177.399" gradientUnits="userSpaceOnUse"><stop offset=".016" style="stop-color:#d1a1d6"/><stop offset=".994" style="stop-color:#bd89c4"/></linearGradient><path d="M199.32 168.59s-10.83 10.52-17.75 9.38l.47 8.24s11.37-.99 15.07-12.95c0 0 1.33-3.44 2.21-4.67z" style="opacity:.91;fill:url(#SVGID_26_)"/><linearGradient id="SVGID_27_" x1="398.996" x2="398.996" y1="220.6" y2="145.099" gradientUnits="userSpaceOnUse"><stop offset=".016" style="stop-color:#ffc2a9"/><stop offset="1" style="stop-color:#ff9595"/></linearGradient><path d="M428.36 182.89s-9.95 18.19-21.6 23.78h-3.98l-9.19 13.93s-5.94-3.73-6.38-15.98c0 0 2.08-2.17 2.59-4.62 0 0-3.28-2.58-4.17-4.47-.88-1.9-1.2-7.58-1.83-9.92-.63-2.34-6-7.2-7.2-7.83-1.2-.63-6.63-.95-6.63-.95s-.76-1.96 0-2.9c.76-.95 9.22-4.24 13.83-1.08 0 0 .32 2.4.82 3.67.51 1.26 4.55 5.74 5.18 5.74.63 0 3.35-2.27 4.55-4.04 1.15-1.7 7.26-14.87 8.74-19.32.01-.05.02-.09.04-.13.02-.07.05-.14.06-.2.02-.05.03-.09.04-.13.01-.02.02-.03.02-.05 1.14-3.85 7.77-11.24 11.31-13.26 0 0 1.51-.38 2.33 1.51 0 0-2.84 8.09-5.81 12.89-.5.81-1.04 1.76-1.6 2.78h-.01c-2.53 4.65-5.38 10.74-5.79 11.63l-.05.11 1.58.81 4.27-4.05 4.38-4.15 10.05 10.61-.99 1.26-3.14 4.03 1.59.29 3.7-4.09 3.29 4.13z" style="fill:url(#SVGID_27_)"/><linearGradient id="SVGID_28_" x1="407.916" x2="407.916" y1="196.41" y2="158.9" gradientUnits="userSpaceOnUse"><stop offset="0" style="stop-color:#ffeadb"/><stop offset=".994" style="stop-color:#c27cb6"/></linearGradient><path d="m426.03 186.76-3.18 4.67s-17.45-13.46-21.24-14.6c-3.79-1.14-5.18-.38-5.18-.38l-3.91 4.99s7.2 6.38 7.83 14.97c0 0-2.4-10.86-10.55-14.15.63 0 3.35-2.27 4.55-4.04 1.15-1.7 7.26-14.87 8.74-19.32-.2.76-.46 2.24.16 3.41.86 1.59 5.92.09 6.22 0h.01l-5.8 11.63-.05.11 1.58.81 4.27-4.05-2.14 4.97 15.58 2.75-3.14 4.03 1.59.29 4.66 3.91z" style="opacity:.6;fill:url(#SVGID_28_)"/><linearGradient id="SVGID_29_" x1="415.316" x2="415.316" y1="183.463" y2="166.648" gradientUnits="userSpaceOnUse"><stop offset="0" style="stop-color:#ffb0b0"/><stop offset=".984" style="stop-color:#ffc2a9"/></linearGradient><path d="M413.86 166.66s3.03-.44 4.99 3.47l-.44 1.26s2.95.58 5.81 5.37c0 0-2.53 4.61-8.78 6.69 0 0-2.91-.82-3.41-3.28l.57-1.58-2.27 1.71s-2.72.82-3.92-3.22l7.45-10.42z" style="fill:url(#SVGID_29_)"/><linearGradient id="SVGID_30_" x1="425.069" x2="425.069" y1="186.053" y2="176.832" gradientUnits="userSpaceOnUse"><stop offset="0" style="stop-color:#ffb0b0"/><stop offset=".984" style="stop-color:#ffc2a9"/></linearGradient><path d="M429.27 181.63s.63-2.91-2.46-4.8l-6 6.63s.18 2.13 2.78 2.59c0 0 4.1-1.39 5.68-4.42z" style="fill:url(#SVGID_30_)"/><linearGradient id="SVGID_31_" x1="385.63" x2="402.78" y1="204.431" y2="204.431" gradientUnits="userSpaceOnUse"><stop offset=".016" style="stop-color:#d1a1d6"/><stop offset=".994" style="stop-color:#bd89c4"/></linearGradient><path d="M385.63 195.53s6.95 7.76 17.15 11.14l-4.4 6.66-9.17-11.65.59-1.68s-3.67-2.76-4.17-4.47z" style="opacity:.91;fill:url(#SVGID_31_)"/><path d="M418.41 171.4s-2.91 4.8-5.81 7.2l-.57 1.58s5.64-3.81 7.71-8.2c.01 0-.67-.49-1.33-.58z" class="st32"/><linearGradient id="SVGID_32_" x1="361.763" x2="361.763" y1="263.621" y2="179.11" gradientUnits="userSpaceOnUse"><stop offset="0" style="stop-color:#ccf"/><stop offset="1" style="stop-color:#755cbb"/></linearGradient><path d="M397.44 222.68c-.88 1.39-5.3 4.3-6.44 5.44-1.14 1.13 0 4.87 0 4.87-18.57 19.71-37.93 29.58-39.88 30.54-.11.05-.16.08-.16.08-1.52.19-8.91-1.89-16.3-16.67-6.7-13.39-8.62-22.33-8.93-23.89l-.04-.24 1.63-2.21 2.42-27.28 1.7 5.49c6.44-7.77 12.51-19.7 12.51-19.7l.27.86v.01c1.09 4.28 3.33 20.31 5.41 26.03 1.3 3.57 3.35 5.54 4.86 6.56l.01.02-.01.01c-5.93 5.41-8.87 13.19-10.32 19.38-1.33 5.68-1.42 10.03-1.42 10.03s1.64-7.7 6.82-16.96c1.88-3.37 4.62-6.38 7.33-8.85 2.04-1.86 4.07-3.42 5.72-4.58 1.42.88 2.62 2.27 3.78 1.69-7.8 11.71-7.61 34.89-.28 30.47 7.32-4.42 9-13.8 9-13.8-1.73-11.43-1.21-24.32.18-26.77 1.69.06 6.52 3.45 6.8 3.37-.44 13.45 5.88 22.43 5.88 22.43l4.17-6.45c-6.07-10.23-5.62-20.19-5.62-20.19.25-.11 1.72.97 1.72.97l-1.03 1.28c1.58 9.1 6.76 15.22 6.76 15.22l3.47-5.08c-.01 0 .88 6.53-.01 7.92z" style="opacity:.5;fill:url(#SVGID_32_)"/><linearGradient id="SVGID_33_" x1="175.69" x2="317.04" y1="246.595" y2="246.595" gradientUnits="userSpaceOnUse"><stop offset="0" style="stop-color:#ccf"/><stop offset="1" style="stop-color:#755cbb"/></linearGradient><path d="M317.04 306.81v3.98l-.07.07-.22.2-.18.15c-1.8 1.42-9.43 6.07-33.27 7.35-28.25 1.51-47.07-7.58-47.07-7.58l1.42-3.89s-1.32-1.13-1.42-1.7c-.09-.57 1.04-1.9 1.04-1.9s-2.84-1.51-2.84-3.41c0-1.71 4.64-6.66 5.39-11.31.09-.5.13-.99.11-1.48-.19-5-4.51-9.43-5.11-12.27-.01-.03-.01-.04-.01-.04-.57-2.84 7.39-9.85 7.39-9.85-6.82-21.6-8.15-50.59-8.15-50.59l-1.32-1.52s-8.15 18.57-15.54 27.66c-7.39 9.1-18.19 16.87-20.08 16.49-4.36 0-9.23-7.58-13.65-16.93s-4.69-36.21-4.92-37.87c-.24-1.66-2.7-4.98-2.85-6.4 4.74 8.15 12.29 5.75 12.29 5.75-5.47.12-8.31-10.11-8.31-10.11l-.03-.07-.03-.07-2.67-7.05c.3.34 6.55 7.33 12.59 3.02 6.19-4.42 9.38-12.98 9.38-12.98v10.99s.37 1.71.94 1.71c-.37 5.06-1.44 11.22-2.74 17.29-2.81 13.13-6.66 25.81-6.66 25.81s10.44-5.68 14.11-20.08c1.75-6.89 2.04-12.88 1.87-17.24-.15-3.73-.64-6.28-.84-7.21-.01-.07-.03-.14-.05-.21 0-.03-.01-.07-.02-.1 0-.02-.01-.04-.01-.05l1.01 2.14 1.92 4.76c2.23 18.48-2.37 46.33-2.37 46.33 6.7-8.34 8.09-26.78 7.8-31.26-.13-2.14-.3-4.78-.41-6.94-.15-2.36-.25-4.15-.25-4.15l13.71 8.18-2.53-8.02 9.98 8.02s8.97 10.8 18.19 12.06c9.22 1.27 43.07.51 43.07.51s-29.43 1.89-38.02 4.42c-8.59 2.53-10.23 5.43-10.23 5.43 6.21 31.59 40.58 42.24 41.65 42.56-31.18-4.68-45.69-31.19-45.69-31.19s-.51 14.91 1.89 20.59 16.55 19.58 34.74 22.48c1.53.24 3.04.39 4.53.46 15.34.72 28.04-7.12 29.34-7.96.07-.05.11-.07.11-.07s-.01.02-.03.05c-.49.75-6.78 9.59-32.18 10.56-1.54.06-3.04.05-4.5-.01h-.02c-23.54-.99-35.53-16.67-35.53-16.67s-8.71 4.68-3.15 11.62c.06.07.12.15.18.22 1.64 1.89 5.25 4.2 9.52 6.58.12.07.24.14.35.2 5.16 2.85 11.21 5.79 15.89 8.22.03.01.05.02.07.03 2.86 1.49 5.21 2.77 6.52 3.73.01 0 .01.01.01.01 1.32.96 1.59 1.58.3 1.73-6.57.76-31.45-4.67-32.46-3.16-1.01 1.52 1.23 5.43 1.23 5.43 22.84 11.32 71.71 5.74 73.25 5.57-40.9 10.47-74.36-2.79-74.36-2.79l1.11 3.92s18.22 6.31 39.69 6.82c21.48.5 34.87-4.99 34.87-4.99l2.33-3.98z" style="opacity:.5;fill:url(#SVGID_33_)"/><linearGradient id="SVGID_34_" x1="300.305" x2="327.323" y1="222.941" y2="222.941" gradientUnits="userSpaceOnUse"><stop offset="0" style="stop-color:#ccedff"/><stop offset="1" style="stop-color:#755cbb"/></linearGradient><path d="M300.31 216.87s16.27.88 27.02 3.73l-5.54 8.41c-.01 0-8.35-7.34-21.48-12.14z" style="opacity:.5;fill:url(#SVGID_34_)"/><linearGradient id="SVGID_35_" x1="275.8" x2="315.506" y1="270.358" y2="270.358" gradientUnits="userSpaceOnUse"><stop offset="0" style="stop-color:#ccedff"/><stop offset="1" style="stop-color:#755cbb"/></linearGradient><path d="M315.51 261.71s-10.15 8.47-20.13 12.38c-9.98 3.92-19.58 4.29-19.58 4.29s5.74 1.71 19.85-.57c14.12-2.27 18.95-9.92 18.95-9.92l.91-6.18z" style="opacity:.5;fill:url(#SVGID_35_)"/><linearGradient id="SVGID_36_" x1="277.639" x2="320.06" y1="288.312" y2="288.312" gradientUnits="userSpaceOnUse"><stop offset="0" style="stop-color:#ccedff"/><stop offset="1" style="stop-color:#755cbb"/></linearGradient><path d="M320.06 294.32c-18.78 4.86-42.62-2.1-42.42-2.95.2-.85 6.53.38 21.21-2.56 14.23-2.85 19.39-7.91 19.7-8.22-.12.86-2.08 2.75-2.64 4.81-.38 1.37 2.28 5.69 4.15 8.92z" style="opacity:.5;fill:url(#SVGID_36_)"/><linearGradient id="SVGID_37_" x1="241.13" x2="241.13" y1="243.86" y2="196.25" gradientUnits="userSpaceOnUse"><stop offset="0" style="stop-color:#ccedff"/><stop offset="1" style="stop-color:#755cbb"/></linearGradient><path d="M269.05 219.42c-16.04 1.63-20.36 6.1-20.36 6.1-4.51.57-14.64-10.98-14.64-10.98l-1.32-1.52s-8.15 18.57-15.54 27.66a63.65 63.65 0 0 1-2.77 3.18l1.05-2.36s1.72-.82 2.22-9.85c.51-9.02-3.79-22.48-3.82-24.31s-.66-11.09-.66-11.09l13.71 8.18-2.53-8.02 9.98 8.02s3.91 5.88 13.78 10.78c9.31 4.63 19.75 4.26 20.9 4.21z" style="opacity:.5;fill:url(#SVGID_37_)"/><linearGradient id="SVGID_38_" x1="244.963" x2="244.963" y1="247.862" y2="211.772" gradientUnits="userSpaceOnUse"><stop offset="0" style="stop-color:#ccedff"/><stop offset="1" style="stop-color:#755cbb"/></linearGradient><path d="m232.73 213.02 9.56-1.25s3.82 2.53 11.49 5.65l-6.39 9.43s2.54 13.44 9.82 21.01c0 0-19.32-10.73-22.04-19.75l-2.44-15.09z" style="opacity:.5;fill:url(#SVGID_38_)"/><linearGradient id="SVGID_39_" x1="187.925" x2="187.925" y1="201.727" y2="174.46" gradientUnits="userSpaceOnUse"><stop offset="0" style="stop-color:#ccedff"/><stop offset="1" style="stop-color:#755cbb"/></linearGradient><path d="m176.94 184.42 2.73 7.19s2.78 9.7 8.31 10.11c5.53.41 10.93-16.27 10.93-16.27v-10.99s-5.88 12.6-12.23 14.02c-6.34 1.43-9.74-4.06-9.74-4.06z" style="opacity:.5;fill:url(#SVGID_39_)"/><linearGradient id="SVGID_40_" x1="209.99" x2="220.979" y1="177.715" y2="177.715" gradientUnits="userSpaceOnUse"><stop offset="0" style="stop-color:#ccedff"/><stop offset="1" style="stop-color:#755cbb"/></linearGradient><path d="M209.99 178.73s4.93 9.85 10.99 12.88c0 0-7.21-17.5-5.69-27.79 0 0-2.65 1.65-5.3 14.91z" style="opacity:.5;fill:url(#SVGID_40_)"/><linearGradient id="SVGID_41_" x1="329.447" x2="329.447" y1="243.86" y2="193.32" gradientUnits="userSpaceOnUse"><stop offset="0" style="stop-color:#ccf"/><stop offset="1" style="stop-color:#755cbb"/></linearGradient><path d="m329.74 193.32 1.7 5.49 1.72 45.05s-4.37-8.57-7.43-20.81l1.59-2.45s2.68-16.98 2.42-27.28z" style="opacity:.76;fill:url(#SVGID_41_)"/><linearGradient id="SVGID_42_" x1="386.268" x2="386.268" y1="232.99" y2="206.58" gradientUnits="userSpaceOnUse"><stop offset="0" style="stop-color:#ccf"/><stop offset="1" style="stop-color:#755cbb"/></linearGradient><path d="M382.09 206.58s-.96 22.13 8.44 24.04l.47 2.37s-12.17-.45-8.91-26.41z" style="opacity:.5;fill:url(#SVGID_42_)"/><linearGradient id="SVGID_43_" x1="356.316" x2="356.316" y1="231.81" y2="211.62" gradientUnits="userSpaceOnUse"><stop offset="0" style="stop-color:#ccf"/><stop offset="1" style="stop-color:#755cbb"/></linearGradient><path d="M366.4 213.31s-.36.79-3.78-1.69c0 0-11.83 8.38-16.39 20.19 0 0 7.29-10.85 11.17-12.02s4.82 3.16 4.82 3.16 1.54-6.11 4.18-9.64z" style="opacity:.3;fill:url(#SVGID_43_)"/><linearGradient id="SVGID_44_" x1="182.217" x2="182.217" y1="203.468" y2="195.97" gradientUnits="userSpaceOnUse"><stop offset="0" style="stop-color:#ccedff"/><stop offset="1" style="stop-color:#755cbb"/></linearGradient><path d="M175.69 195.97s4.55 8.39 13.08 5.76c0 0-5.11 3.44-10.23.64 0 0-3.18-5.45-2.85-6.4z" style="opacity:.5;fill:url(#SVGID_44_)"/><linearGradient id="SVGID_45_" x1="202.246" x2="202.246" y1="226.327" y2="185.35" gradientUnits="userSpaceOnUse"><stop offset="0" style="stop-color:#ccf"/><stop offset="1" style="stop-color:#755cbb"/></linearGradient><path d="M205.5 185.35s6.26 23.4-10.07 40.98c0 0 10.6-5.44 13.01-18.04 2.4-12.61-2.94-22.94-2.94-22.94z" style="opacity:.5;fill:url(#SVGID_45_)"/><linearGradient id="SVGID_46_" x1="307.67" x2="307.67" y1="197.484" y2="166.648" gradientUnits="userSpaceOnUse"><stop offset="0" style="stop-color:#ccedff"/><stop offset="1" style="stop-color:#755cbb"/></linearGradient><path d="M317.64 166.65s-.7 10.56-5.77 18.14c-5.06 7.58-15.1 12.69-15.1 12.69s12.6-4.64 18.38-11.18c5.78-6.53 2.49-19.65 2.49-19.65z" style="opacity:.5;fill:url(#SVGID_46_)"/><linearGradient id="SVGID_47_" x1="267.272" x2="267.272" y1="193.316" y2="150.756" gradientUnits="userSpaceOnUse"><stop offset="0" style="stop-color:#ccedff"/><stop offset="1" style="stop-color:#755cbb"/></linearGradient><path d="M253.19 150.76s0 8.83 2.84 17.83c2.84 9 27.51 24.73 27.51 24.73s-25.43-10.56-30.35-20.06c-4.93-9.5 0-22.5 0-22.5z" style="opacity:.5;fill:url(#SVGID_47_)"/><linearGradient id="SVGID_48_" x1="252.901" x2="323.986" y1="201.1" y2="201.1" gradientUnits="userSpaceOnUse"><stop offset="0" style="stop-color:#8642a0"/><stop offset="1" style="stop-color:#6456c0"/></linearGradient><path d="M252.9 192.82v14.38s33.11-.27 70.24 2.19l.85-12.95c0 .01-32.28-3.82-71.09-3.62z" style="fill:url(#SVGID_48_)"/><path d="M259.04 196.1c.01-.25.13-.36.35-.36l6.71.2c.66.02 1.23.12 1.69.3.46.18.83.43 1.11.75s.47.69.59 1.14c.12.44.17.93.15 1.47l-.06 1.84c-.02.54-.1 1.03-.24 1.46-.14.43-.36.8-.66 1.1-.3.3-.68.52-1.15.68-.47.15-1.04.22-1.7.2l-3.61-.11-.75-2.11h-.1l-.06 2.09-2.53-.08.26-8.57zm2.34 6.33 4.29.13c.48.01.83-.08 1.04-.29.21-.21.32-.58.34-1.12l.05-1.5c.02-.56-.07-.94-.27-1.15-.2-.21-.54-.32-1.02-.33l-4.1-.13c-.06 0-.1.02-.14.05a.21.21 0 0 0-.05.13l-.14 4.21zM273.27 199.93h-.09l-.08 2.68c0 .11.05.17.17.18l7.54.23-.07 2.32-9.89-.3c-.24-.01-.35-.13-.35-.38l.25-8.21c.01-.25.13-.36.37-.36l9.61.29c.25.01.37.13.36.38l-.07 2.32-2.37.8h-.1l.04-1.19c0-.09-.04-.14-.12-.14l-5.07-.15c-.07 0-.11.02-.13.05-.02.04-.03.08-.03.12l-.03 1.12 4.18.13-.06 1.82-3.5-.11-.56-1.6zM290.04 199.77h-.1l.03-.98c0-.1-.04-.15-.14-.15l-4.72-.14c-.17 0-.29.03-.36.1s-.1.18-.11.32l-.01.22c-.01.17.02.28.08.33.06.05.17.09.33.12l5.53.94c.35.06.65.15.89.25.24.11.44.25.59.42.15.17.25.38.31.63s.08.54.07.88l-.02.71c-.01.37-.07.69-.17.97s-.25.51-.46.7c-.21.19-.49.32-.82.41-.34.09-.75.13-1.24.11l-7.96-.24.07-2.32 7.14.22c.21.01.36-.03.43-.1.07-.08.11-.21.12-.41l.01-.25c0-.16-.02-.27-.07-.33s-.15-.11-.31-.13l-5.34-.84c-.36-.06-.67-.14-.92-.25-.25-.11-.46-.24-.62-.41-.16-.17-.27-.37-.34-.61s-.09-.52-.08-.85l.02-.63c.02-.65.21-1.14.56-1.49.36-.35.93-.51 1.74-.48l7.95.24c.25.01.38.14.37.4l-.06 1.84-2.39.8zM293.4 205.72l.27-8.94 2.53.08-.27 8.94-2.53-.08zM305.32 202.25c0-.13 0-.27-.01-.41-.01-.14-.02-.27-.03-.38v-.11l2.51.08-.13 4.39c-.01.23-.11.34-.32.33l-6.73-.2c-.66-.02-1.23-.12-1.69-.3-.46-.18-.83-.43-1.11-.75-.28-.32-.48-.69-.59-1.14a4.89 4.89 0 0 1-.15-1.47l.06-1.84c.02-.54.1-1.03.24-1.46.14-.43.36-.8.66-1.1.3-.3.68-.52 1.15-.68.47-.15 1.04-.22 1.7-.2l6.69.2c.24.01.35.13.35.38l-.06 1.93-2.37.79h-.1l.03-.86c0-.08-.03-.12-.11-.13l-4.27-.13c-.25-.01-.45.01-.62.05a.85.85 0 0 0-.42.22c-.11.11-.19.25-.25.44-.05.18-.09.41-.1.68l-.05 1.57c-.02.54.07.92.27 1.14.2.22.54.34 1.02.35l4.24.13c.09 0 .14-.04.14-.14l.05-1.38zM313.14 197.37c.19.01.32.04.4.1.08.06.14.15.21.28l3.2 6.53c.05.1.13.15.23.15h.13c.13 0 .2-.06.2-.19l.2-6.73 2.3.07-.26 8.59c-.01.24-.13.35-.35.34l-3.64-.11c-.17 0-.3-.03-.38-.09a.716.716 0 0 1-.23-.29l-3.32-6.52c-.05-.1-.12-.15-.23-.15h-.12c-.13 0-.2.06-.2.19l-.2 6.72-2.3-.07.26-8.58c.01-.25.13-.36.35-.36l3.75.12z" class="st56"/><linearGradient id="SVGID_49_" x1="259.03" x2="305.29" y1="160.08" y2="160.08" gradientUnits="userSpaceOnUse"><stop offset="0" style="stop-color:#ccf"/><stop offset="1" style="stop-color:#755cbb"/></linearGradient><path d="M305.29 152.67c-.78 9.3-3.61 15.78-6.63 20.15-4.16 6-8.66 8.05-8.66 8.05-4.5-1.96-8.4-4.4-11.76-7.09-14.26-11.4-18.86-27.2-19.21-28.5 6.02 14.54 14.86 23.35 21.56 28.31 5.4 4.01 9.41 5.52 9.41 5.52v-4.65c-1.07-.4-2.11-.86-3.1-1.36-11.8-5.95-18-18.35-20.9-26.37-.01-.02-.01-.03-.02-.05-1.57-4.34-2.18-7.39-2.18-7.39h2.14l-.7 1.5-.03.05c.34 1.52.73 2.98 1.17 4.37.01.04.02.08.04.11 6.6 20.82 23.58 27.53 23.58 27.53 11.8-8.71 11.57-22.54 11.57-22.54v-1.9l2.21.66 1.51 3.6z" style="opacity:.5;fill:url(#SVGID_49_)"/><linearGradient id="SVGID_50_" x1="377.951" x2="377.951" y1="229.979" y2="203.207" gradientUnits="userSpaceOnUse"><stop offset="0" style="stop-color:#ccf"/><stop offset="1" style="stop-color:#755cbb"/></linearGradient><path d="M375.29 203.21s-3.21 10.48-.18 26.77c0 0 1.52-20.65 2.65-22.45 1.14-1.8 4.32-.95 4.32-.95s-5-2.77-6.79-3.37z" style="opacity:.3;fill:url(#SVGID_50_)"/><linearGradient id="SVGID_51_" x1="340.11" x2="340.11" y1="260.18" y2="179.11" gradientUnits="userSpaceOnUse"><stop offset="0" style="stop-color:#ccf"/><stop offset="1" style="stop-color:#755cbb"/></linearGradient><path d="M344.17 260.18c-2.8-2.45-6.16-6.54-9.51-13.24-6.7-13.39-8.62-22.33-8.93-23.89l1.59-2.45 2.13-20.6 1.99-1.19s7.11-7.85 12.51-19.7c.08.18.17.46.27.86v.01c1.09 4.28 3.33 20.31 5.41 26.03 1.3 3.57 3.35 5.54 4.86 6.56 0 0-12.31 18.26-12.91 31.29-.53 11.86 2.11 15.72 2.59 16.32z" style="opacity:.5;fill:url(#SVGID_51_)"/><linearGradient id="SVGID_52_" x1="252.95" x2="252.95" y1="298.26" y2="275.02" gradientUnits="userSpaceOnUse"><stop offset="0" style="stop-color:#ccf"/><stop offset="1" style="stop-color:#755cbb"/></linearGradient><path d="M271.08 298.26s-22.19-3.64-31.25-9.48c0 0-.01 0-.01-.01.09-.5.13-.99.11-1.48-.19-5-4.51-9.43-5.11-12.27.1.27.75 1.77 3.9 4.47 1.99 1.71 5 3.91 9.52 6.58.12.07.24.14.35.2 6.4 3.78 11.91 6.34 15.89 8.22.03.01.05.02.07.03 3.58 1.68 5.9 2.79 6.52 3.73.01 0 .01.01.01.01z" style="opacity:.5;fill:url(#SVGID_52_)"/><linearGradient id="SVGID_53_" x1="298.095" x2="298.095" y1="291.876" y2="280.59" gradientUnits="userSpaceOnUse"><stop offset="0" style="stop-color:#ccf"/><stop offset="1" style="stop-color:#755cbb"/></linearGradient><path d="M318.55 280.59c-.12.86-2.08 2.75-2.64 4.81 0 0-8.14 8.62-38.27 5.97.2-.85 6.53.38 21.21-2.56 14.23-2.85 19.39-7.91 19.7-8.22z" style="opacity:.5;fill:url(#SVGID_53_)"/><path d="m323.56 163.96-19.26 6.24-5.64 2.62-.03.01-3.67.01-4.96.01-3.1.25-1.64.12-4.67.37-2.35.19-23.1-8.36-4.13-1.49-19-6.88c.56-.22 1.13-.44 1.73-.68 12.75-5.05 25.26-11.18 25.26-11.18l4.8-5.9h2.14c1.91-4.18 3.18-8.09 4-11.17l1.27-5.71c.09-.55.13-.85.13-.85l6.8 3.59 22.93 18.34c-.02 1.25.02 2.37.09 3.32l.33 2.31c.06-.45.08-.71.08-.71l2.21.66 1.51 3.6s2.56 3.98 12.7 8.44c1.75.77 3.63 1.74 5.57 2.85z" style="opacity:.5;fill:#7a4ac0"/><linearGradient id="SVGID_54_" x1="297.598" x2="297.598" y1="146.812" y2="69.605" gradientUnits="userSpaceOnUse"><stop offset=".016" style="stop-color:#ffc2a9"/><stop offset="1" style="stop-color:#ff9595"/></linearGradient><path d="M308.89 146.39s-8.98 2.02-18.89-2.78-18.24-18.95-18.75-22.48c-.5-3.54 3.79-12.76 3.79-19.96 0-7.2-3.53-19.58 2.4-26.28 5.94-6.69 33.22-7.7 42.07.89 0 0 2.74 6.88 2.74 10.77 0 .94-.17 2.32-.42 3.91-.08.59-.19 1.22-.29 1.87-.79 4.71-1.88 10.46-1.37 12.98.18.88.46 1.69.79 2.46v.01c1.09 2.52 2.71 4.53 3 6.71.38 2.85-3.44 23.06-15.07 31.9z" style="fill:url(#SVGID_54_)"/><linearGradient id="SVGID_55_" x1="268.815" x2="268.815" y1="115.657" y2="92.895" gradientUnits="userSpaceOnUse"><stop offset=".016" style="stop-color:#ffc2a9"/><stop offset="1" style="stop-color:#ff9595"/></linearGradient><path d="M274.97 99.14s-2.45-6.15-8.61-6.24c0 0-3.6 1.42-4.17 4.17 0 0 1.33 9.95 2.84 14.59 1.52 4.64 7.07 3.97 7.07 3.97s4.84-7.41 2.87-16.49z" style="fill:url(#SVGID_55_)"/><linearGradient id="SVGID_56_" x1="308.329" x2="309.283" y1="124.265" y2="119.296" gradientUnits="userSpaceOnUse"><stop offset="0" style="stop-color:#e1616a"/><stop offset="1" style="stop-color:#ff8883"/></linearGradient><path d="M298.63 119.39s2.05-.16 2.93.5c.88.66 4.11 3.79 8.18 4.64 4.07.85 6.81-2.62 7.67-2.79.87-.18 1.82 1.05 1.82 1.05s-.37-1.42-2.5-2.06c0 0-.86 3.27-6.76 2.15-5.9-1.12-8.42-3.74-8.42-3.74l-.3-.54c.02 0-1.65.35-2.62.79z" style="fill:url(#SVGID_56_)"/><linearGradient id="SVGID_57_" x1="299.714" x2="299.714" y1="120.463" y2="70.726" gradientUnits="userSpaceOnUse"><stop offset="0" style="stop-color:#ffeadb"/><stop offset=".994" style="stop-color:#c27cb6"/></linearGradient><path d="m289.92 88.8.08-.63s5.89-10.34 17.54-10.62c11.65-.28 14.28 7.02 14.28 7.02l2.16-3.28-4.92-9.99-34.24-.57-8.34 6.73-1.05 16.47 3.71 21.74 9.02 4.81 2.55-2.26c-.94-7.28-6.35-13.93-6.35-13.93l3.95-2.74s10.14 4.91 15.99 3.44c0 0 4.41-12.86 4.15-22.38 0-.02-15.01 2.2-18.53 6.19z" style="opacity:.6;fill:url(#SVGID_57_)"/><path d="M289.4 89.56s.57-3.72 6.85-5.21c7-1.66 12.69-3.06 12.69-3.06s-1.24 4.08-3.57 5.61c0 0-7.41-.27-11.15.58-3.76.86-4.82 2.08-4.82 2.08zM321.83 84.57s-3.55 2.74-5.97 9.28c0 0 2.32-3.03 4.45-2.98 1.46.03 1.23 1.48 1.23 1.48s1.45-3.92.29-7.78z" class="st67"/><linearGradient id="SVGID_58_" x1="297.289" x2="297.289" y1="100.095" y2="90.242" gradientUnits="userSpaceOnUse"><stop offset="0" style="stop-color:#cf6074"/><stop offset="1" style="stop-color:#f37270"/></linearGradient><path d="M291.75 100.09s.38-7.86 8.05-9.85c0 0 2.75 3.55 3.03 7.58 0 0-4.07-.76-11.08 2.27z" style="fill:url(#SVGID_58_)"/><linearGradient id="SVGID_59_" x1="316.942" x2="316.942" y1="103.221" y2="94.647" gradientUnits="userSpaceOnUse"><stop offset="0" style="stop-color:#cf6074"/><stop offset="1" style="stop-color:#ff817f"/></linearGradient><path d="M313.73 103.22s.62-6.26 4.22-8.57c0 0 2.45 1.84 2.2 7.08-.01-.01-2.16-.78-6.42 1.49z" style="fill:url(#SVGID_59_)"/><path d="M291.75 100.09s2.49 3.06 9.47 3.66c0 0 1.33-2.02 1.2-5.99 0 .01-6.41-.6-10.67 2.33zM313.73 103.22v.92s1.07 2.24 4.93 2.62c0 0 1.24-1.93 1.35-5.07-.01 0-2.46-.62-6.28 1.53z" class="st70"/><path d="M299.21 97.61s-1.77 2.15-1.61 5.55c0 0 2.32.55 3.62.6 0 0 1.53-2.13 1.2-5.99 0 0-2.03-.43-3.21-.16zM317.38 101.79s-1 1.07-1.19 4.36c0 0 1.37.6 2.46.6 0 0 1.4-1.99 1.35-5.07 0 .01-.98-.37-2.62.11z" class="st71"/><path d="M298.63 103.39s-.63-4.25 1.8-5.87l1.99.25s.66 3.36-1.2 5.99c0 0-1.98-.23-2.59-.37zM318.26 101.61s-.9 1.89-1.32 4.83c0 0 .69.28 1.71.32 0 0 1.36-1.67 1.35-5.07 0 0-1.04-.28-1.74-.08z" class="st67"/><path d="M291.75 100.09s4.64-2.7 12.55-1.16l-1.47-1.11s-5.64-1.75-11.08 2.27zM313.73 103.22s3.72-1.98 8.06-.93l-1.79-1.32s-2.91-.45-6.27 2.25z" class="st72"/><path d="M296.77 100.09s1.26-.28 2.4.87c0 .01-1.56.46-2.4-.87zM315.43 103.76s1.98-.38 2.66.52c.01 0-1.05.72-2.66-.52z" class="st11"/><path d="M292.21 100.55s3.61 3.57 9.39 4.42l.15-2.1-.53.89s-5.55-.33-9.01-3.21zM313.73 104.14s.64 2.31 5.34 3.35l-.15-1.13-.26.4c-.01 0-3.35-.43-4.93-2.62z" class="st73"/><path d="M304.3 113.36s1.75-.38 4.97 0c3.22.38 6.84 1.26 8.82 0 0 0-2.63 2.63-4.91 3.03-2.28.4-5.75-1.6-5.75-1.6l-1.52.03c.02 0-1.15-.58-1.61-1.46z" style="fill:#cb5f7d"/><path d="M306.15 114.81s.79-.51 1.45-.38c.66.13 1.34 1.09 1.34 1.09s-1.4-.74-2.79-.71z" style="fill:#9f4a8b"/><path d="M318.1 113.36c.84-.82-3.52-8.58-5.6-8.87-2.08-.29-4.04 8.7-4.04 8.7s2.9.41 5.71.78c2.8.38 3.93-.61 3.93-.61z" class="st76"/><linearGradient id="SVGID_60_" x1="317.748" x2="317.748" y1="108.21" y2="88.917" gradientUnits="userSpaceOnUse"><stop offset="0" style="stop-color:#ffeadb"/><stop offset=".994" style="stop-color:#c27cb6"/></linearGradient><path d="M321.21 88.92c-1.18-.15-5.35 4.92-5.35 4.92s-2.65 8.21-2.13 10.64c.52 2.44 6.96 3.73 6.96 3.73l.27-.43v-.01c-.33-.77-.61-1.58-.79-2.46-.51-2.52.58-8.27 1.37-12.98 0 0 .26-.97.29-1.87.03-.76-.08-1.48-.62-1.54z" style="opacity:.6;fill:url(#SVGID_60_)"/><linearGradient id="SVGID_61_" x1="298.634" x2="298.634" y1="147.783" y2="54.15" gradientUnits="userSpaceOnUse"><stop offset="0" style="stop-color:#2e33a0"/><stop offset="1" style="stop-color:#0665a5"/></linearGradient><path d="M321.02 122.26c-1.33-2.78-.51-4.23-12.06-5.74-16.35-2.15-17.75 2.84-20.53 2.08-.1-.03-.22-.07-.33-.12-3.01-1.17-10.1-8.14-10.28-17.53-.19-9.76 6.35-16.68 6.35-16.68-2.37-1.99-3.32-7.76-.76-10.23 2.56-2.46 6.92-1.89 17.62-.76 10.71 1.14 10.71.48 10.71.48 3.4.87 5.35 4.06 5.9 5.08.11.2.16.32.16.32l1.33-1.23c3.6 5.21 2.94 10.89 2.94 10.89s5.87-11.94 5.2-13.63c-1.22-3.12-4.61-7.67-4.82-7.96l-.01-.01s-.95-9.09-3.79-9.09-14.97 2.74-14.97 2.74c1.33-3.12 1.14-6.72 1.14-6.72l-.05.05c-3.96 3.55-7.83 3.94-13.31 6.48-2.76 1.29-4.06 2.48-5.13 3.72l-.37.44-.39.47c-.38.48-.77.97-1.24 1.47-.02.03-.05.05-.06.06l-.03.03c-.44.48-.96.97-1.59 1.49-3.6 2.93-11.52 4.89-12.47 7.99-.95 3.09 1.2 7.32 2.34 11.68 1.13 4.36.61 8.21.61 8.21s3.77 4.86 2.52 11.97c-1.11 6.37-3.54 7.41-3.54 7.41-1.71 3.51-.9 6.79-.9 6.79 3.5 13.92 17.98 22.21 17.98 22.21 12.88 4.8 21.35 2.71 21.35 2.71l.01-.01c9.37-6.11 12.58-26.33 12.72-27.27-.16.25-1.9 2.95-2.25 2.21zm-5.78 12.89c-2.27-.38-2.75-6.13-3.5-6.89-.76-.75-4.87-.44-4.87-.44s-3.79 4.3-5.3 4.42c-1.52.13-9.6-3.16-7.85-8.08 1.74-4.93 7.85-5.56 7.85-5.56s3.16 2.65 7.89 2.96c4.74.31 6.45-.56 7.01-.81.57-.26 3.62 1.13 3.54 5.43-.05 2.99-2.49 9.35-4.77 8.97z" style="fill:url(#SVGID_61_)"/><path d="M314.65 106.21s4.08 5.07 3.69 6.98c-.43 2.09-5.16 3.2-5.16 3.2s3.79-1.31 4.57-3.2c.01 0-.97-3.84-3.1-6.98z" style="fill:#d2726c"/><linearGradient id="SVGID_62_" x1="323.227" x2="323.227" y1="88.82" y2="67.22" gradientUnits="userSpaceOnUse"><stop offset="0" style="stop-color:#ffeadb"/><stop offset=".994" style="stop-color:#8860c7"/></linearGradient><path d="M322.07 88.82s.66-5.68-2.94-10.89c2.89-5.16 3.31-10.71 3.31-10.71l.01.01c.98 2.41 1.54 7.1 1.54 7.1l3.28.86c.67 1.69-5.2 13.63-5.2 13.63z" style="opacity:.6;fill:url(#SVGID_62_)"/><linearGradient id="SVGID_63_" x1="293.792" x2="293.792" y1="147.783" y2="54.15" gradientUnits="userSpaceOnUse"><stop offset="0" style="stop-color:#ccc2db"/><stop offset=".994" style="stop-color:#8860c7"/></linearGradient><path d="M317.64 78.84c-.55-1.02-2.5-4.21-5.9-5.08 0 0 0 .66-10.71-.48-10.7-1.13-15.06-1.7-17.62.76-2.56 2.47-1.61 8.24.76 10.23 0 0-6.54 6.92-6.35 16.68.18 9.39 7.27 16.36 10.28 17.53l-.14 1.04s.53 21.5 5.76 23.21c5.22 1.7 16.06.82 17.07 1.83.96.96-.14 2.61-.24 2.76l-.01.01s-8.47 2.09-21.35-2.71c0 0-14.48-8.29-17.98-22.21 0 0-.81-3.28.9-6.79 0 0 2.43-1.04 3.54-7.41 1.25-7.11-2.52-11.97-2.52-11.97s.52-3.85-.61-8.21c-1.14-4.36-3.29-8.59-2.34-11.68 6.06.95 10.04-2.21 10.04-2.21s1.06-1.47 5.75-2.23c4.69-.76 23.54 1.14 23.54 1.14s-1.89-1.57-5.87-2.61c-3.76-.99-16.6.16-17.98.27 1.47-.26 16.03-2.76 17.69-2.26 1.76.52 8.06 3.41 8.06 3.41-.57-2.89-6.21-9.85-6.21-9.85s-7.96.14-13.17 1.23c-4.65.97-7.2 3.1-7.7 3.54l1.24-1.47.39-.47.37-.44 1.82-.31 9.14-3.69c3.07-1.64 7-5.7 7.48-6.2l.05-.05s.19 3.6-1.14 6.72c7.72-.95 10.33-.47 10.33-.47 3.51 4.97 3.63 18.44 3.63 18.44z" style="opacity:.6;fill:url(#SVGID_63_)"/><linearGradient id="SVGID_64_" x1="300.07" x2="300.07" y1="147.761" y2="143.738" gradientUnits="userSpaceOnUse"><stop offset="0" style="stop-color:#776d7e"/><stop offset="1" style="stop-color:#9d68c2"/></linearGradient><path d="M289.19 144.62s4.73-1.12 11.87-.83c7.14.29 11.25.32 9.48 3.54 0 0-8.97 2.03-21.35-2.71z" style="opacity:.5;fill:url(#SVGID_64_)"/><linearGradient id="SVGID_65_" x1="311.873" x2="311.873" y1="60.87" y2="57.881" gradientUnits="userSpaceOnUse"><stop offset="0" style="stop-color:#1f77d1"/><stop offset="1" style="stop-color:#0686c9"/></linearGradient><path d="M314.01 60.4s4.34-1.69 6.06-1.42c0 0-.68-.91-1.39-1.1-.71-.19-15 2.98-15 2.98s8.91-1.03 10.33-.46z" style="fill:url(#SVGID_65_)"/><linearGradient id="SVGID_66_" x1="292.834" x2="292.834" y1="70.71" y2="61.873" gradientUnits="userSpaceOnUse"><stop offset="0" style="stop-color:#1f77d1"/><stop offset="1" style="stop-color:#0686c9"/></linearGradient><path d="M305.2 62.01s-.34 4.73-1.85 6.44l-17.69 2.26-5.19-.92s2.01-.86 4.22-3.43c2.2-2.58 13.74-5.11 20.51-4.35z" style="fill:url(#SVGID_66_)"/><linearGradient id="SVGID_67_" x1="324.855" x2="324.855" y1="75.19" y2="67.22" gradientUnits="userSpaceOnUse"><stop offset="0" style="stop-color:#1f77d1"/><stop offset="1" style="stop-color:#0686c9"/></linearGradient><path d="M322.44 67.22s1.44 4.65 1.55 7.11l3.28.86s-1-3.52-4.83-7.97z" style="fill:url(#SVGID_67_)"/><linearGradient id="SVGID_68_" x1="272.13" x2="261.935" y1="110.262" y2="97.771" gradientUnits="userSpaceOnUse"><stop offset="0" style="stop-color:#ffeadb"/><stop offset=".994" style="stop-color:#b060f4"/></linearGradient><path d="M274.24 107.48s-1.24-5.97-4.29-8.92-6.52-2.01-6.52-2.01.95 11.07 1.94 13.77c.99 2.7 2.51 3.41 2.51 3.41s-2.13-1.87-2.42-5.53c-.28-3.66-.38-8.82.43-9.44.81-.62 4.06 1.79 4.06 1.79s-1.03 1.26-1.64 4.52c-.62 3.26 1.66 5.63 2.51 5.58.85-.05-.05-3.77.09-4.85.14-1.06 2.03-.83 3.33 1.68z" style="opacity:.8;fill:url(#SVGID_68_)"/><linearGradient id="SVGID_69_" x1="273.198" x2="268.181" y1="108.653" y2="102.507" gradientUnits="userSpaceOnUse"><stop offset="0" style="stop-color:#ffeadb"/><stop offset=".994" style="stop-color:#b060f4"/></linearGradient><path d="M271.19 100.07s-3.33 2.19-2.97 6.67c.36 4.49 2.92 4.29 2.93 3.35.01-.94-.49-3.37-.23-4.74s2.47-.75 2.47-.75-1.44-3.56-2.2-4.53z" style="opacity:.8;fill:url(#SVGID_69_)"/><path d="M323.27 120.05s-4.14 18.87-12.73 27.28c0 0 9.8-3.85 12.73-27.28zM318.68 57.89s2.18 1.7 2.6 7.59c.41 5.9-2.14 12.45-2.14 12.45s3.28-4.9 3.6-10.27c.3-5.37-2.33-9.09-4.06-9.77z" class="st88"/><linearGradient id="SVGID_70_" x1="292.243" x2="309.51" y1="71.5" y2="71.5" gradientUnits="userSpaceOnUse"><stop offset="0" style="stop-color:#1f77d1"/><stop offset="1" style="stop-color:#0686c9"/></linearGradient><path d="M292.24 70.24s5.05 1.72 10.59 2.21 6.68.6 6.68.6-2.23-2.16-6.97-2.81c-4.74-.65-10.3 0-10.3 0z" style="fill:url(#SVGID_70_)"/><linearGradient id="SVGID_71_" x1="316.597" x2="321.834" y1="123.139" y2="123.139" gradientUnits="userSpaceOnUse"><stop offset="0" style="stop-color:#1f77d1"/><stop offset="1" style="stop-color:#0686c9"/></linearGradient><path d="M316.64 120.46s2.42 0 3.37 3.03c.76 2.42.97 4.5.97 4.5l.86-3.32s-1.12-4.21-2.28-5.16c-.84-.68-2.28-1.37-2.96-1.21l.04 2.16z" style="fill:url(#SVGID_71_)"/><linearGradient id="SVGID_72_" x1="310.132" x2="315.78" y1="119.245" y2="119.245" gradientUnits="userSpaceOnUse"><stop offset="0" style="stop-color:#1f77d1"/><stop offset="1" style="stop-color:#0686c9"/></linearGradient><path d="m310.13 117.43.41 3.6s2.94.24 4.89-.57l.35-2.18s-3.75-.94-5.65-.85z" style="fill:url(#SVGID_72_)"/><path d="M323.56 163.96s17.23 12.58 19.46 16.91c2.24 4.33 3.14 17.9 6.16 23.78 0 0-2.07-9.61-3.52-17.14-1.45-7.53-1.1-7.64-1.91-9.49-.79-1.85-13.66-10.78-20.19-14.06zM320.47 234s-8.3 35.54-7.93 37.94c.38 2.4 5.75 7.3 6 8.64 0 0-4.11 5.5-3.92 6.72s7.2 8.92 7.01 11.31c-.05.69-4.6 8.19-4.6 8.19s5.14-7.37 5.39-8.55c.25-1.18-6.3-11.03-6.49-12.03-.5-2.59 3.27-4.5 3.39-6.2.13-1.71-5.09-5.87-5.14-8.65-.02-2.77 6.29-37.37 6.29-37.37zM322.16 318.73s17.95 40.63 24.07 81.27c0 0-1.02-39.66-24.07-81.27z" class="st88"/><path d="M208.35 155.8s-4.64-.99-6.57-5.04c-1.93-4.05-.67-9.92-.67-9.92s3.64 6.98 5.45 9.36c1.81 2.38 2.3 5.09 1.79 5.6z" class="st76"/></g><g class="st1"><path d="m351.66 134.62 3.22 91.8a6.771 6.771 0 0 0 6.76 6.53h158.13c3.67 0 6.67-2.93 6.76-6.6l2.21-92.87a6.77 6.77 0 0 0-6.81-6.93l-163.56 1.07a6.752 6.752 0 0 0-6.71 7z" style="opacity:.6;fill:#36d1f7"/><path d="M519.77 233.19H361.64c-3.8 0-6.88-2.97-7.01-6.77l-3.22-91.8a6.96 6.96 0 0 1 1.95-5.1 6.937 6.937 0 0 1 5.02-2.16l163.57-1.07c1.9.01 3.71.73 5.05 2.1a6.951 6.951 0 0 1 2.01 5.08l-2.21 92.87c-.11 3.84-3.19 6.85-7.03 6.85zm2.21-106.4h-.04l-163.57 1.07c-1.78.01-3.43.72-4.66 2a6.462 6.462 0 0 0-1.81 4.74l3.22 91.8a6.486 6.486 0 0 0 6.51 6.29h158.13c3.51 0 6.43-2.85 6.51-6.36l2.21-92.87c.04-1.78-.62-3.45-1.87-4.72a6.378 6.378 0 0 0-4.63-1.95z" class="st93"/><linearGradient id="SVGID_73_" x1="351.796" x2="528.854" y1="132.946" y2="132.946" gradientUnits="userSpaceOnUse"><stop offset="0" style="stop-color:#9d68c2"/><stop offset="1" style="stop-color:#aec2ff"/></linearGradient><path d="M351.89 139.29h176.66l.28-4.84c.25-4.28-3.17-7.88-7.46-7.85l-163.5 1.29c-3.41.03-6.15 2.84-6.08 6.25l.1 5.15z" style="opacity:.6;fill:url(#SVGID_73_)"/><linearGradient id="SVGID_74_" x1="387.814" x2="387.814" y1="199.82" y2="146.417" gradientUnits="userSpaceOnUse"><stop offset="0" style="stop-color:#ccedff"/><stop offset="1" style="stop-color:#9d68c2"/></linearGradient><path d="M360.78 146.7v53.12h54.07v-53.4z" style="opacity:.3;fill:url(#SVGID_74_)"/><linearGradient id="SVGID_75_" x1="478.873" x2="478.873" y1="173.784" y2="150.261" gradientUnits="userSpaceOnUse"><stop offset="0" style="stop-color:#ccedff"/><stop offset="1" style="stop-color:#9d68c2"/></linearGradient><path d="M467.11 150.26h23.52v23.52h-23.52z" style="opacity:.3;fill:url(#SVGID_75_)"/><linearGradient id="SVGID_76_" x1="506.626" x2="506.626" y1="173.784" y2="150.261" gradientUnits="userSpaceOnUse"><stop offset="0" style="stop-color:#ccedff"/><stop offset="1" style="stop-color:#9d68c2"/></linearGradient><path d="M494.86 150.26h23.52v23.52h-23.52z" style="opacity:.3;fill:url(#SVGID_76_)"/><linearGradient id="SVGID_77_" x1="450.656" x2="450.656" y1="173.784" y2="150.261" gradientUnits="userSpaceOnUse"><stop offset="0" style="stop-color:#ccedff"/><stop offset="1" style="stop-color:#9d68c2"/></linearGradient><path d="M438.89 150.26h23.52v23.52h-23.52z" style="opacity:.3;fill:url(#SVGID_77_)"/><path d="M458.23 187.5h60.15v5.63h-60.15zM443.19 196.07h75.2v1.74h-75.2zM443.9 176.78h14.39v1.74H443.9zM471.68 176.78h14.39v1.74h-14.39zM499.43 176.78h14.39v1.74h-14.39zM438.89 198.91h24.19v1.74h-24.19zM443.19 201.71h75.2v1.74h-75.2zM438.89 204.51h79.49v1.74h-79.49zM438.89 207.31h79.49v1.74h-79.49zM443.19 218.63h75.2v1.74h-75.2zM438.89 221.43h79.49v1.74h-79.49zM438.89 224.23h79.49v1.74h-79.49zM438.89 210.11h76.3v1.74h-76.3zM443.19 212.91h75.2v1.74h-75.2zM438.89 215.71h64.41v1.74h-64.41z" class="st99"/><path d="M375.93 189.17c-8.48 0-15.38-6.9-15.38-15.38s6.9-15.38 15.38-15.38 15.38 6.9 15.38 15.38-6.9 15.38-15.38 15.38zm0-29.77c-7.93 0-14.38 6.45-14.38 14.38 0 7.93 6.45 14.38 14.38 14.38 7.93 0 14.38-6.45 14.38-14.38 0-7.93-6.45-14.38-14.38-14.38z" class="st100"/><circle cx="375.93" cy="173.78" r="8.36" class="st11"/><path d="M414.85 161.8c-8.48 0-15.38-6.9-15.38-15.38s6.9-15.38 15.38-15.38 15.38 6.9 15.38 15.38c.01 8.48-6.9 15.38-15.38 15.38zm0-29.77c-7.93 0-14.38 6.45-14.38 14.38 0 7.93 6.45 14.38 14.38 14.38 7.93 0 14.38-6.45 14.38-14.38.01-7.92-6.45-14.38-14.38-14.38z" class="st100"/><circle cx="414.85" cy="146.42" r="7.87" class="st11" transform="rotate(-81.06 414.862 146.43)"/><path d="m358.08 132.08 1.13-1.7 6.08 5.32-.94 1.3z" class="st11"/><path d="m365.44 132.08-1.12-1.7-6.08 5.32.93 1.3zM469.84 131.53h54.44v2.73h-54.44z" class="st11"/></g><g class="st1"><linearGradient id="SVGID_78_" x1="197.668" x2="197.668" y1="115.987" y2="91.365" gradientUnits="userSpaceOnUse"><stop offset="0" style="stop-color:#d93de3"/><stop offset="1" style="stop-color:#ff6dba"/></linearGradient><path d="M183.35 92.12v23.63l28.26.24.38-24.62z" style="fill:url(#SVGID_78_)"/><linearGradient id="SVGID_79_" x1="212.718" x2="212.718" y1="115.987" y2="91.365" gradientUnits="userSpaceOnUse"><stop offset="0" style="stop-color:#a242ea"/><stop offset="1" style="stop-color:#fe117e"/></linearGradient><path d="m211.99 91.37 1.84 3.1-.92 21.49-1.3.03z" style="fill:url(#SVGID_79_)"/><path d="m188.4 100.1 2.61-3.79 14.1 11.84-2.16 2.89z" class="st11"/><path d="m205.48 100.1-2.61-3.79-14.11 11.84 2.16 2.89z" class="st11"/></g><g class="st1"><linearGradient id="SVGID_80_" x1="193.396" x2="206.71" y1="375.37" y2="269.356" gradientUnits="userSpaceOnUse"><stop offset="0" style="stop-color:#067eff"/><stop offset="1" style="stop-color:#3e37a0"/></linearGradient><path d="M249.27 370.18h-96.69c-4.3 0-7.82-3.44-7.92-7.74l-1.81-79.31c-.1-4.44 3.47-8.1 7.92-8.1h100.67c4.46 0 8.04 3.68 7.92 8.14l-2.18 79.31c-.11 4.29-3.62 7.7-7.91 7.7z" style="opacity:.81;fill:url(#SVGID_80_)"/><path d="M249.27 370.43h-96.69c-4.4 0-8.07-3.58-8.17-7.98l-1.81-79.31c-.05-2.22.78-4.31 2.33-5.9a8.121 8.121 0 0 1 5.84-2.46h100.67c2.22 0 4.3.88 5.85 2.47a8.11 8.11 0 0 1 2.31 5.92l-2.18 79.31a8.104 8.104 0 0 1-8.15 7.95zm-98.49-95.14c-2.08 0-4.03.82-5.48 2.31a7.592 7.592 0 0 0-2.18 5.54l1.81 79.31c.09 4.13 3.53 7.49 7.67 7.49h96.69c4.18 0 7.55-3.28 7.67-7.46l2.18-79.31c.06-2.09-.71-4.06-2.17-5.56a7.606 7.606 0 0 0-5.5-2.32H150.78z" style="fill:#473da2"/><path d="M168.92 291.26h50.85v2.18h-50.85zM168.92 296.55h25.42v2.18h-25.42zM168.92 300.98h25.42v2.18h-25.42zM197.2 300.98h20.23v2.18H197.2zM168.92 305.4h40.99v2.18h-40.99zM168.92 309.82h14.59V312h-14.59zM186.51 323.08h25.23v2.18h-25.23zM168.92 314.24h45.73v2.18h-45.73zM168.92 318.66h35.18v2.18h-35.18zM168.92 323.08h16.55v2.18h-16.55zM168.92 327.5h25.42v2.18h-25.42zM168.92 331.92h7.29v2.18h-7.29zM179.22 331.92h26.46v2.18h-26.46zM186.51 336.21h25.23v2.18h-25.23zM168.92 336.21h16.55v2.18h-16.55zM168.92 340.63h25.42v2.18h-25.42zM168.92 345.05h7.29v2.18h-7.29zM179.22 345.05h26.46v2.18h-26.46z" class="st11"/></g><linearGradient id="SVGID_81_" x1="504.249" x2="504.249" y1="113.308" y2="104.371" gradientUnits="userSpaceOnUse"><stop offset="0" style="stop-color:#459fff"/><stop offset="1" style="stop-color:#a96dff"/></linearGradient><path d="M508.72 108.84c0 2.47-2 4.47-4.47 4.47-2.47 0-4.47-2-4.47-4.47s2-4.47 4.47-4.47c2.47 0 4.47 2 4.47 4.47z" style="clip-path:url(#SVGID_2_);fill:url(#SVGID_81_)"/><linearGradient id="SVGID_82_" x1="84.256" x2="84.256" y1="218.038" y2="206.915" gradientUnits="userSpaceOnUse"><stop offset="0" style="stop-color:#459fff"/><stop offset="1" style="stop-color:#a96dff"/></linearGradient><path d="M89.82 212.48a5.56 5.56 0 0 1-11.12 0 5.56 5.56 0 0 1 11.12 0z" style="clip-path:url(#SVGID_2_);fill:url(#SVGID_82_)"/><linearGradient id="SVGID_83_" x1="517.374" x2="517.374" y1="113.308" y2="104.371" gradientUnits="userSpaceOnUse"><stop offset="0" style="stop-color:#b31a8f"/><stop offset="1" style="stop-color:#fe117e"/></linearGradient><circle cx="517.37" cy="108.84" r="4.47" style="clip-path:url(#SVGID_2_);fill:url(#SVGID_83_)"/><linearGradient id="SVGID_84_" x1="229.203" x2="229.203" y1="142.726" y2="136.406" gradientUnits="userSpaceOnUse"><stop offset="0" style="stop-color:#b31a8f"/><stop offset="1" style="stop-color:#fe117e"/></linearGradient><circle cx="229.2" cy="139.57" r="3.16" style="clip-path:url(#SVGID_2_);fill:url(#SVGID_84_)"/><linearGradient id="SVGID_85_" x1="440.86" x2="440.86" y1="282.163" y2="275.844" gradientUnits="userSpaceOnUse"><stop offset="0" style="stop-color:#8642a0"/><stop offset="1" style="stop-color:#6456c0"/></linearGradient><circle cx="440.86" cy="279" r="3.16" style="clip-path:url(#SVGID_2_);fill:url(#SVGID_85_)"/><linearGradient id="SVGID_86_" x1="112.338" x2="112.338" y1="313.333" y2="307.683" gradientUnits="userSpaceOnUse"><stop offset="0" style="stop-color:#8642a0"/><stop offset="1" style="stop-color:#6456c0"/></linearGradient><circle cx="112.34" cy="310.51" r="2.82" style="clip-path:url(#SVGID_2_);fill:url(#SVGID_86_)"/><g class="st1"><linearGradient id="SVGID_87_" x1="136.043" x2="136.043" y1="282.771" y2="236.109" gradientUnits="userSpaceOnUse"><stop offset="0" style="stop-color:#d906e3"/><stop offset="1" style="stop-color:#ff6df9"/></linearGradient><path d="M160.49 282.77h-48.8c-3.93 0-7.15-3.11-7.28-7.04l-1.08-32.1a7.281 7.281 0 0 1 7.28-7.53h50.86c4.11 0 7.41 3.4 7.28 7.51l-.98 32.1a7.282 7.282 0 0 1-7.28 7.06z" style="opacity:.73;fill:url(#SVGID_87_)"/><path d="M160.49 283.02h-48.8a7.51 7.51 0 0 1-7.53-7.28l-1.08-32.1c-.07-2.06.68-4.01 2.11-5.49a7.486 7.486 0 0 1 5.42-2.3h50.86c2.06 0 3.98.81 5.41 2.29a7.457 7.457 0 0 1 2.12 5.48l-.98 32.1a7.495 7.495 0 0 1-7.53 7.3zm-49.88-46.66c-1.92 0-3.72.76-5.06 2.14s-2.04 3.2-1.97 5.13l1.08 32.1c.13 3.81 3.22 6.8 7.03 6.8h48.8c3.82 0 6.91-3 7.03-6.82l.98-32.1c.06-1.92-.65-3.73-1.98-5.11a6.98 6.98 0 0 0-5.05-2.14h-50.86z" class="st112"/><path d="m124.7 247.64-12.03 13.95 12.26 10.4v-5.37l-7.09-6.14 6.58-7.44zM145.85 248.27l12.04 13.94-12.26 10.4v-5.36l7.09-6.14-7.89-8.35zM127.33 271.99l10.48-23.1h4.93l-11.88 23.1z" class="st11"/></g><g class="st1"><linearGradient id="SVGID_88_" x1="458.234" x2="458.234" y1="348.822" y2="290.447" gradientUnits="userSpaceOnUse"><stop offset="0" style="stop-color:#d906e3"/><stop offset="1" style="stop-color:#ff6df9"/></linearGradient><path d="M488.82 348.82h-61.05c-4.91 0-8.94-3.89-9.11-8.8l-1.36-40.15c-.17-5.15 3.95-9.42 9.11-9.42h63.63c5.14 0 9.26 4.25 9.11 9.39l-1.23 40.15c-.14 4.92-4.17 8.83-9.1 8.83z" style="opacity:.73;fill:url(#SVGID_88_)"/><path d="M488.82 349.07h-61.05c-5.08 0-9.18-3.97-9.36-9.04l-1.36-40.15c-.09-2.56.85-4.98 2.63-6.82a9.284 9.284 0 0 1 6.73-2.85h63.63c2.55 0 4.94 1.01 6.72 2.84a9.267 9.267 0 0 1 2.64 6.8L498.18 340a9.326 9.326 0 0 1-9.36 9.07zm-62.4-58.37c-2.42 0-4.69.96-6.37 2.7a8.822 8.822 0 0 0-2.49 6.46l1.36 40.15c.16 4.8 4.05 8.56 8.86 8.56h61.05c4.82 0 8.71-3.77 8.86-8.59l1.23-40.15c.07-2.42-.81-4.71-2.5-6.44a8.761 8.761 0 0 0-6.36-2.69h-63.64z" class="st112"/><path d="M429.55 296.91h55.91v33.21h-55.91z" class="st99"/><path d="M452.55 305.15v16.73l14.29-9.13z" class="st11"/><path d="M429.55 336.24h55.91v3.04h-55.91z" class="st99"/><path d="M429.55 336.24h14.47v3.04h-14.47z" class="st11"/></g><g class="st1"><linearGradient id="SVGID_89_" x1="404.32" x2="399.347" y1="275.204" y2="232.513" gradientTransform="rotate(15.072 238.518 213.186)" gradientUnits="userSpaceOnUse"><stop offset="0" style="stop-color:#1852a0"/><stop offset="1" style="stop-color:#067ed3"/></linearGradient><path d="m388.58 286.42-2.92 8.35c1.62-4.62 3.94-7.61 2.92-8.35zm-2.91 8.34-2.92 8.35c.73-.22 1.3-3.73 2.92-8.35zm2.91-8.34-2.92 8.35c1.62-4.62 3.94-7.61 2.92-8.35zm-2.91 8.34-2.92 8.35c.73-.22 1.3-3.73 2.92-8.35zm8.42 7.24 2.83 1.61 3.06-8.35-3.28-.55c.06-.31.12-.62.16-.93.24-1.43.32-2.83.28-4.16l3.43-2.15-1.56-7.36-3.29 3.14a9.655 9.655 0 0 0-1.68-2.45c-.18-.2-.37-.38-.57-.55l2.01-4.64-5.35-1.74-1.28 4.68c-1.2 0-2.41.3-3.62.85l-.59-4.42-5.89 4.46 1.36 3.92a22.31 22.31 0 0 0-2.87 4.18l-2.84-1.6-3.06 8.35 3.28.55c-.35 1.76-.48 3.47-.43 5.09l-3.43 2.15 1.56 7.36 3.29-3.14c.59 1.2 1.34 2.22 2.25 3l-2.01 4.65 5.26 2.05.81-2.96.55-2.02c1.2 0 2.42-.3 3.63-.84l.58 4.42 5.89-4.46-1.36-3.92c.83-.95 1.61-2.02 2.32-3.2.2-.36.38-.69.56-1.02zm-8.42-7.24c-1.62 4.61 0 9.37-2.92 8.35-2.93-1.03-4-5.6-2.38-10.2 1.62-4.61 5.3-7.51 8.22-6.49 2.93 1.02-1.31 3.73-2.92 8.34zm2.91-8.34-2.92 8.35c1.62-4.62 3.94-7.61 2.92-8.35zm-2.91 8.34-2.92 8.35c.73-.22 1.3-3.73 2.92-8.35z" style="fill-rule:evenodd;clip-rule:evenodd;fill:url(#SVGID_89_)"/><linearGradient id="SVGID_90_" x1="399.499" x2="399.499" y1="275.366" y2="231.621" gradientTransform="rotate(15.072 238.518 213.186)" gradientUnits="userSpaceOnUse"><stop offset="0" style="stop-color:#1852a0"/><stop offset="1" style="stop-color:#067ed3"/></linearGradient><path d="m396.93 303.6 3.06-8.35-3.12-1.48-.5-.24.33-4.6 3.46-1.69-1.14-7.14-7.55-2.46 1.39 3.31 2.63-5.36-5.35-1.74-2.2-.72-5.27-2.05-.98 3.6-4.59-2.18-5.89 4.46 1.79 4.82-5.51 15.26-2.72 9.91 5.23.57-1.7 3.93 5.27 2.05 7.54 2.46-1.21-2.42-.76-1.45 2.79.91 4.76 1.55 5.89-4.46-3.64-4.29 4.6-2.83 3.39.63zm-16.57-10.69c1.62-4.61 5.3-7.51 8.22-6.49l-2.92 8.35-2.92 8.35c-2.93-1.04-4-5.61-2.38-10.21z" style="fill-rule:evenodd;clip-rule:evenodd;fill:url(#SVGID_90_)"/><linearGradient id="SVGID_91_" x1="361.937" x2="358.72" y1="289.272" y2="261.658" gradientTransform="matrix(.9438 .3306 -.5202 1.4851 181.336 -235.914)" gradientUnits="userSpaceOnUse"><stop offset="0" style="stop-color:#188dc1"/><stop offset="1" style="stop-color:#06bfe7"/></linearGradient><path d="m389.38 301.14 3.06-8.35-3.28-.55c.35-1.76.48-3.47.44-5.08l3.43-2.15-1.56-7.36-3.29 3.14c-.58-1.2-1.34-2.22-2.25-3l2.01-4.64-5.27-2.05-1.36 4.99c-1.2.01-2.42.3-3.62.84l-.58-4.42-5.89 4.45 1.36 3.92a22.393 22.393 0 0 0-2.87 4.19l-2.84-1.6-3.06 8.35 3.28.55c-.35 1.76-.48 3.47-.44 5.08l-3.43 2.15 1.56 7.36 3.29-3.14c.58 1.2 1.34 2.22 2.25 3l-2.01 4.64 5.27 2.05 1.36-4.99c1.2-.01 2.42-.3 3.62-.84l.58 4.42 5.89-4.45-1.36-3.92c1.06-1.21 2.03-2.62 2.87-4.19l2.84 1.6zm-14.19-.49c-2.93-1.03-3.99-5.59-2.38-10.2 1.61-4.61 5.3-7.51 8.23-6.49 2.93 1.03 3.99 5.59 2.38 10.2-1.61 4.61-5.3 7.51-8.23 6.49z" style="fill-rule:evenodd;clip-rule:evenodd;fill:url(#SVGID_91_)"/><path d="m400.57 287.46-7.54-2.45-3.43 2.15 7.54 2.45z" class="st117"/><path d="m392.58 310.1-7.55-2.46-1.36-3.91 7.55 2.46z" style="fill-rule:evenodd;clip-rule:evenodd;fill:#b3d9ff"/><path d="m385.92 277.79 4.14 1.2 1.4-1.34 2.75.89 1.27-2.94-7.54-2.45zM374.93 308.53l3.95 1.64-.33-2.49c.01 0-2.12 1.13-3.62.85zM375.54 285.9l6.65 3.52s.96-1.29 1.71-1.81c.01 0-1.73-7.34-8.36-1.71z" class="st117"/></g><path d="m222.79 36.96 6.41 12.85-4.28 1.95-6-11.8z" style="clip-path:url(#SVGID_2_);fill:#ff1d9c"/><path d="m78.34 336.3 5.94 6.52 2.33-2.69-5.61-6.17z" style="clip-path:url(#SVGID_2_);fill:#6877ff"/><path d="m380.11 115.37-5.98 3.63-2.39-4.55 6.54-3.81zM409.56 345.08l-8.57 6.09-2.4-4.54 8.32-4.86z" class="st121"/><g class="st1"><linearGradient id="SVGID_92_" x1="412.351" x2="423.683" y1="88.097" y2="46.014" gradientUnits="userSpaceOnUse"><stop offset="0" style="stop-color:#188dc1"/><stop offset="1" style="stop-color:#06bfe7"/></linearGradient><path d="m398.24 84.3-1.45-33.66h44.07l-1.81 33.56z" style="fill-rule:evenodd;clip-rule:evenodd;fill:url(#SVGID_92_)"/><linearGradient id="SVGID_93_" x1="392.873" x2="401.324" y1="83.243" y2="51.86" gradientUnits="userSpaceOnUse"><stop offset="0" style="stop-color:#1852a0"/><stop offset="1" style="stop-color:#067ed3"/></linearGradient><path d="m396.79 50.64-1.32 1.98 1.32 31.68h1.45z" style="fill-rule:evenodd;clip-rule:evenodd;fill:url(#SVGID_93_)"/><path d="m411.42 57.36-6.91-.74.94 23.06 5.97-.58v-2.39l-3.46.08-.39-17.78 3.85.11zM425.59 57.36l6.91-.74-.95 23.06-5.96-.58v-2.39l3.45.08.4-17.78-3.85.11z" class="st11"/></g><g class="st1"><linearGradient id="SVGID_94_" x1="121.924" x2="129.649" y1="160.571" y2="131.882" gradientTransform="matrix(-1 0 0 1 206.656 0)" gradientUnits="userSpaceOnUse"><stop offset="0" style="stop-color:#188dc1"/><stop offset="1" style="stop-color:#06bfe7"/></linearGradient><path d="m94.35 157.98.99-22.95H65.3l1.23 22.88z" style="fill-rule:evenodd;clip-rule:evenodd;fill:url(#SVGID_94_)"/><linearGradient id="SVGID_95_" x1="108.646" x2="114.407" y1="157.261" y2="135.867" gradientTransform="matrix(-1 0 0 1 206.656 0)" gradientUnits="userSpaceOnUse"><stop offset="0" style="stop-color:#1852a0"/><stop offset="1" style="stop-color:#067ed3"/></linearGradient><path d="m95.34 135.03.9 1.36-.9 21.59h-.99z" style="fill-rule:evenodd;clip-rule:evenodd;fill:url(#SVGID_95_)"/><path d="M83.77 139.65s3.29-.13 3.88.14c.58.27-.15 5.64-.15 5.64l1.31 1.21-1.23 1.19s.06 5.44-.71 5.89c-.78.45-3.42 0-3.42 0v-1.36s2.16.14 2.52-.15c.36-.29.32-5.04.32-5.04l.58-.64-.58-.69s.11-3.39.04-4.32c-.04-.62-2.56-.65-2.56-.65v-1.22zM76.22 139.65s-3.29-.13-3.88.14c-.58.27.15 5.64.15 5.64l-1.31 1.21 1.23 1.19s-.06 5.44.71 5.89c.77.45 3.42 0 3.42 0v-1.36s-2.16.14-2.52-.15-.32-5.04-.32-5.04l-.58-.64.58-.69s-.11-3.39-.04-4.32c.04-.62 2.56-.65 2.56-.65v-1.22z" class="st11"/></g><g class="st1"><path d="m347.86 87.33-7.36-19.27 19.09 3.99-11.73 15.28zm-6.57-18.59 6.72 17.58 10.7-13.94-17.42-3.64zM400.214 360.235l6.468-8.823.403.296-6.467 8.823zM339.92 279.16l-6.95-8.65.39-.31 6.95 8.65zM125.59 339.88l-13.87-10.06.29-.4 13.87 10.06z" class="st93"/><path d="m113.416 341.323 10.381-13.627.398.303-10.381 13.627zM94.223 187.653l.233-.443 8.976 4.716-.233.443zM448.05 71.37l-.37-.33 10.37-11.83.37.33zM246.131 100.203l.448-.222 4.636 9.32-.447.223zM172.768 266.771l11.92-9.97.32.383-11.92 9.97z" class="st93"/></g></svg>